<?xml version="1.0" encoding="UTF-8" standalone="no"?>
<!-- Generator: Adobe Illustrator 16.0.4, SVG Export Plug-In . SVG Version: 6.00 Build 0)  -->

<svg
   xmlns:dc="http://purl.org/dc/elements/1.1/"
   xmlns:cc="http://creativecommons.org/ns#"
   xmlns:rdf="http://www.w3.org/1999/02/22-rdf-syntax-ns#"
   xmlns:svg="http://www.w3.org/2000/svg"
   xmlns="http://www.w3.org/2000/svg"
   xmlns:xlink="http://www.w3.org/1999/xlink"
   xmlns:sodipodi="http://sodipodi.sourceforge.net/DTD/sodipodi-0.dtd"
   xmlns:inkscape="http://www.inkscape.org/namespaces/inkscape"
   version="1.1"
   id="Capa_1"
   x="0px"
   y="0px"
   width="93.334px"
   height="106.333px"
   viewBox="0 0 93.334 106.333"
   enable-background="new 0 0 93.334 106.333"
   xml:space="preserve"
   sodipodi:docname="icona_mapa_bcn-01_ConDatos.svg"
   inkscape:version="0.92.1 r15371"><metadata
     id="metadata31"><rdf:RDF><cc:Work
         rdf:about=""><dc:format>image/svg+xml</dc:format><dc:type
           rdf:resource="http://purl.org/dc/dcmitype/StillImage" /></cc:Work></rdf:RDF></metadata><defs
     id="defs29" /><sodipodi:namedview
     pagecolor="#ffffff"
     bordercolor="#666666"
     borderopacity="1"
     objecttolerance="10"
     gridtolerance="10"
     guidetolerance="10"
     inkscape:pageopacity="0"
     inkscape:pageshadow="2"
     inkscape:window-width="1366"
     inkscape:window-height="705"
     id="namedview27"
     showgrid="false"
     inkscape:zoom="5.0407681"
     inkscape:cx="46.667"
     inkscape:cy="55.646281"
     inkscape:window-x="-8"
     inkscape:window-y="-8"
     inkscape:window-maximized="1"
     inkscape:current-layer="Capa_1" /><g
     id="g24"><defs
       id="defs11"><rect
         id="SVGID_5_"
         x="1.835"
         y="2.207"
         width="89.663"
         height="101.919" /></defs><clipPath
       id="SVGID_2_"><use
         xlink:href="#SVGID_5_"
         overflow="visible"
         id="use13" /></clipPath><path
       clip-path="url(#SVGID_2_)"
       d="M57.635,71.79c-0.668,0.449-1.258,0.904-1.902,1.262   c-0.547,0.305-0.488,0.65-0.227,1.072c0.105,0.172,0.24,0.324,0.303,0.404c0.33-0.25,0.59-0.531,0.912-0.672   C57.611,73.466,57.832,72.792,57.635,71.79 M69.027,72.856c0.52-0.361,1.039-0.723,1.559-1.082   c-0.029-0.049-0.057-0.098-0.084-0.145c-0.256,0.115-0.549,0.182-0.754,0.354c-0.412,0.348-0.406,0.365-0.605-0.357   c0.43-0.096,0.875-0.193,1.494-0.33c-0.316-0.467-0.496-0.996-0.727-1.018c-0.418-0.041-0.877,0.188-1.287,0.377   c-0.094,0.043-0.107,0.395-0.059,0.578c0.078,0.291,0.238,0.562,0.369,0.855c-0.385,0.244-0.617,0.41-1.047,0.18   c-0.621-0.332-1.943,0.15-2.305,0.787c-0.094,0.164-0.018,0.451,0.041,0.664c0.045,0.158,0.188,0.287,0.285,0.428   c-0.035,0.033-0.068,0.066-0.104,0.102c-0.166-0.105-0.334-0.209-0.559-0.35c0.066,0.273,0.117,0.504,0.197,0.844   c-0.164-0.15-0.271-0.227-0.354-0.328c-0.512-0.641-0.674-0.721-1.318-0.141c-1.383,1.24-2.701,2.557-4.039,3.85   c-0.234,0.227-0.414,0.51-0.652,0.729c-0.406,0.375-0.49,0.82-0.449,1.352c0.031,0.387,0.115,0.635,0.582,0.6   c0.025,0.053,0.051,0.104,0.076,0.156c-0.619,0.508-1.244,1.01-1.861,1.525c-0.799,0.666-1.621,1.309-2.377,2.02   c-0.93,0.875-1.799,1.812-2.703,2.713c-0.061,0.062-0.199,0.047-0.383,0.082c1.09-1.082,2.066-2.1,2.982-3.42   c0.707-0.148,1.314-0.881,1.971-1.484c0.369-0.338-0.199-0.527-0.385-0.758c-0.541,0.402-1.055,0.785-1.65,1.227   c0.002,0.061,0.006,0.248,0.01,0.434c-0.057,0.012-0.113,0.023-0.17,0.035c-0.1-0.447-0.199-0.893-0.318-1.416   c0.74,0.17,1.641-0.453,2.074-1.322c0.086-0.172,0.021-0.422,0.029-0.727c-0.205,0.104-0.244,0.115-0.271,0.139   c-0.162,0.131-0.32,0.268-0.479,0.402c-0.074-0.273-0.215-0.551-0.197-0.818c0.014-0.201,0.248-0.379,0.352-0.584   c0.104-0.199,0.162-0.42,0.271-0.713c0.355,0.193,0.756,0.41,1.154,0.625c0.055-0.045,0.107-0.092,0.164-0.139   c-0.16-0.27-0.318-0.539-0.49-0.83c0.074-0.111,0.17-0.254,0.293-0.441c0.086,0.062,0.162,0.148,0.256,0.178   c0.184,0.059,0.379,0.088,0.57,0.127c0.027-0.215,0.031-0.436,0.094-0.641c0.055-0.18,0.195-0.334,0.26-0.512   c0.055-0.15,0.055-0.318,0.08-0.48c-0.189-0.002-0.451-0.084-0.555,0.01c-0.217,0.195-0.332,0.5-0.529,0.727   c-0.094,0.111-0.273,0.15-0.414,0.221c-0.033-0.055-0.066-0.109-0.1-0.166c0.172-0.275,0.361-0.541,0.508-0.83   c0.221-0.438,0.529-0.668,1.043-0.627c0.145,0.012,0.334-0.084,0.447-0.191c0.781-0.746,0.953-1.742,0.938-2.738   c-0.006-0.367-0.381-0.777-0.678-1.074c-0.209-0.207-0.506-0.143-0.557,0.266c-0.078,0.629-0.186,1.254-0.268,1.881   c-0.057,0.443-0.207,0.793-0.664,0.99c-0.307,0.131-0.568,0.369-0.85,0.564c-0.469,0.322-0.725,0.273-1.039-0.197   c-0.234-0.352-0.48-0.695-0.717-1.045c-0.162-0.238-0.314-0.264-0.566-0.084c-0.842,0.604-0.863,0.656-0.279,1.541   c0.264,0.4,0.516,0.811,0.791,1.203c0.549,0.779,0.502,0.928-0.494,1.297c-0.43-0.641-0.857-1.297-1.307-1.939   c-0.389-0.557-0.543-0.564-0.904-0.002c-0.213,0.33-0.301,0.738-0.502,1.078c-0.178,0.305-0.447,0.553-0.65,0.844   c-0.523,0.74-0.525,0.875,0.053,1.555c0.266,0.312,0.609,0.559,0.883,0.865c0.127,0.141,0.205,0.346,0.252,0.535   c0.123,0.48,0.264,0.93,0.82,0.984c0.305,1.234-0.738,1.604-1.42,2.168c-1.941,1.602-3.93,3.145-5.873,4.746   c-1.236,1.018-2.166,2.303-3.059,3.625c-1.039,1.543-2.146,3.039-3.217,4.561c-0.621,0.883-1.229,1.775-1.842,2.664   c-0.047-0.023-0.096-0.047-0.145-0.07c0.039-0.105,0.051-0.234,0.119-0.314c0.33-0.391,0.451-0.746,0.25-1.299   c-0.17-0.467-0.258-1.107,0.457-1.461c-0.064,0.164-0.115,0.287-0.189,0.477c0.33-0.029,0.482,0.572,0.891,0.127   c0.326-0.357,0.596-0.678,0.252-1.193c-0.094-0.145-0.045-0.467,0.057-0.639c0.25-0.43,0.582-0.812,0.855-1.229   c0.242-0.367,0.6-0.66,0.469-1.227c-0.053-0.23,0.299-0.549,0.461-0.83c0.365-0.635,0.729-1.271,1.094-1.908   c0.027-0.047,0.066-0.094,0.111-0.129c3.338-2.574,6.676-5.146,10.014-7.721c0.043-0.033,0.074-0.082,0.213-0.236   c-0.285-0.221-0.564-0.6-0.832-0.594c-0.289,0.006-0.57,0.375-0.953,0.662c0.082-0.922-0.568-1.268-0.992-1.861   c-0.756,0.516-1.502,1.012-2.229,1.533c-0.068,0.049-0.066,0.291-0.01,0.393c0.158,0.283,0.326,0.576,0.557,0.799   c0.361,0.35,0.234,0.594-0.086,0.844c-0.031,0.023-0.057,0.053-0.088,0.074c-0.83,0.527-0.629,0.752-1.367-0.174   c-0.369-0.465-0.752-0.92-1.127-1.377c-1.018,0.547-1.09,0.74-0.676,1.768c0.502,1.25,0.498,1.242-0.586,2.109   c-1.291,1.031-2.568,2.08-3.855,3.117c-0.176,0.143-0.371,0.262-0.506,0.357c-0.176-0.494-0.336-0.961-0.51-1.424   C39.232,87.573,39,86.964,38.75,86.36c-0.139-0.334-0.324-0.604-0.777-0.494c-0.383,0.096-0.701,0.186-0.613,0.697   c0.018,0.1-0.123,0.322-0.203,0.328c-0.715,0.055-0.777,0.588-0.709,1.074c0.098,0.684-0.201,0.83-0.793,0.916   c-1.385,0.201-2.756,0.482-4.135,0.719c-0.258,0.047-0.523,0.047-0.861,0.07c0.238-0.584,0.477-1.084,0.641-1.609   c0.088-0.285,0.123-0.633,0.047-0.914c-0.104-0.371-0.703-0.361-0.926,0.002c-1.109,1.797-2.223,3.592-3.305,5.404   c-0.242,0.406-0.479,0.494-0.882,0.275c-0.287-0.156-0.6-0.262-0.892-0.408c-0.55-0.27-0.985-0.186-1.445,0.258   c-0.365,0.352-0.295,0.605-0.051,0.93c0.714,0.951,0.713,0.951-0.21,1.76c-0.632,0.553-0.637,0.633-0.092,1.285   c0.66,0.789,0.66,0.789,1.46,0.131c2.21-1.818,4.378-3.693,6.659-5.414c0.555-0.416,1.49-0.422,2.248-0.414   c0.25,0.004,0.514,0.633,0.736,0.994c0.176,0.285,0.125,0.852,0.748,0.469c0.076-0.047,0.424,0.197,0.525,0.375   c0.162,0.291,0.227,0.637,0.443,0.99c-2.508,2.793-5.102,5.574-7.799,8.254c-0.068-0.045-0.135-0.09-0.202-0.135   c0.003-0.178,0.005-0.355,0.008-0.564c-0.628-0.293-1.26-0.619-1.92-0.873c-0.166-0.064-0.492,0.027-0.62,0.164   c-0.579,0.615-1.094,1.289-1.67,1.906c-0.545,0.586-1.136,1.129-1.603,1.59c-2.433-1.23-4.749-2.418-7.079-3.574   c-1.099-0.545-2.273-0.953-3.331-1.564c-1.647-0.953-3.129-2.148-4.485-3.49c-0.478-0.473-1.015-0.896-1.435-1.414   c-0.525-0.648-0.975-1.359-1.414-2.07c-0.105-0.168-0.045-0.443-0.052-0.67c-0.113-3.195-0.774-6.244-2.398-9.039   c-0.181-0.311-0.321-0.646-0.527-1.068c5.427,0.094,10.774,0.186,16.166,0.279c0.03-0.617,0.475-0.613,0.927-0.6   c0.272,0.543,0.711,0.732,1.372,0.561c0.55-0.141,1.077-0.408,1.675-0.182c0.093,0.035,0.334-0.072,0.366-0.162   c0.179-0.504,0.673-0.293,0.777-0.172c0.409,0.48,0.854,0.117,1.355,0.256c-0.165-0.98-0.364-1.854-0.447-2.736   c-0.08-0.857-0.045-1.725-0.052-2.588c-0.001-0.061,0.058-0.158,0.111-0.18c0.746-0.277,1.058-0.967,1.33-1.59   c0.369-0.846,0.874-1.406,1.798-1.574c0.236-0.043,0.455-0.188,0.703-0.295c-0.057-0.186-0.083-0.359-0.161-0.506   c-0.691-1.277-0.294-2.611-0.101-3.885c0.238-1.564-0.002-2.932-0.791-4.297c-0.47-0.814-0.578-1.838-1.048-2.652   c-0.576-1-0.539-1.906,0.085-2.994c-0.83,0.188-1.487,0.352-2.151,0.48c-0.234,0.045-0.523,0.09-0.721-0.006   c-1.18-0.562-2.344-1.158-3.506-1.76c-0.199-0.104-0.361-0.277-0.588-0.457c0.945-1.547-0.356-2.365-1.141-3.299   c-0.617-0.736-0.912-1.576-1.018-2.455c-0.048-0.398,0.358-0.852,0.558-1.281c0.045,0.055,0.09,0.107,0.135,0.162   c0.432-0.137,0.865-0.273,1.357-0.428c-0.166-0.754-0.321-1.457-0.487-2.208c0.146-0.036,0.298-0.072,0.451-0.11   c-0.007-0.046,0.001-0.093-0.02-0.117c-0.746-0.92-0.187-1.812,0.141-2.643c0.312-0.789,0.468-1.48-0.037-2.228   c-0.207-0.308-0.001-0.499,0.253-0.707c0.847-0.69,1.665-1.415,2.496-2.125c0.086-0.073,0.18-0.192,0.271-0.193   c0.73-0.01,1.153-0.449,1.583-0.974c0.373-0.456,0.871-0.812,1.326-1.196c0.474-0.401,0.551-0.961,0.172-1.471   c-0.26-0.35-0.416-0.637-0.148-1.124c0.56-1.02-0.097-2.665-1.148-3.056c-0.111-0.041-0.306,0.019-0.408,0.1   c-0.437,0.346-0.865,0.262-1.284-0.002c-0.828-0.522-1.677-1.019-2.457-1.605c-0.447-0.336-0.817-0.799-1.146-1.259   c-0.481-0.676-0.721-0.803-1.492-0.483c-0.557,0.232-1.08,0.712-1.638,0.743c-1.022,0.058-1.489,0.782-2.156,1.317   c-0.349,0.279-0.892,0.314-1.347,0.459c-0.036,0.012-0.085,0.023-0.114,0.009c-0.571-0.297-1.159-0.568-1.701-0.911   c-0.285-0.18-0.5-0.477-0.729-0.738c-0.123-0.141-0.261-0.304-0.301-0.479c-0.168-0.747-0.303-1.502-0.448-2.254   c-0.074-0.383,0.083-0.499,0.449-0.395c0.165,0.049,0.339,0.065,0.509,0.095c0.483,0.082,0.728-0.093,0.724-0.612   c-0.002-0.238,0.033-0.507,0.145-0.71c0.189-0.341,0.452-0.521,0.905-0.322c0.272,0.12,0.663,0.148,0.936,0.046   c0.566-0.212,1.011-0.185,1.288,0.272c0.285-0.105,0.509-0.188,0.781-0.288c-0.026-0.105-0.075-0.301-0.138-0.556   c0.283-0.162,0.584-0.32,0.871-0.502c0.224-0.143,0.485-0.274,0.631-0.48c0.193-0.271,0.345-0.329,0.661-0.2   c0.465,0.189,0.722-0.043,0.696-0.56c-0.029-0.587-0.028-1.178-0.093-1.761c-0.042-0.381-0.206-0.746-0.259-1.126   c-0.026-0.19,0.008-0.46,0.128-0.585c0.335-0.348,0.272-0.636,0.049-1.013c-0.177-0.301-0.238-0.67-0.35-1.009   c0.039-0.035,0.079-0.071,0.118-0.106c0.138,0.064,0.28,0.123,0.415,0.195c0.286,0.153,0.553,0.364,0.857,0.459   c0.813,0.254,1.616,0.38,2.043-0.725c-0.906-0.492-1.541-1.489-2.766-1.604c-0.325-0.03-0.616-0.431-0.866-0.62   c0.53-1.641,1.688-1.842,3.237-1.519c-0.275-0.555-0.427-0.982-0.677-1.342c-0.82-1.181-0.744-2.477-0.47-3.765   c0.205-0.963,0.972-1.514,1.884-1.503c-0.109,0.234-0.176,0.478-0.318,0.662c-0.292,0.379-0.124,0.544,0.244,0.658   c0.537,0.167,0.709,0.673,0.384,1.127c-0.496,0.693-0.493,0.689,0.151,1.191c0.095,0.073,0.125,0.227,0.209,0.322   c0.282,0.324,0.537,0.689,0.874,0.943c0.309,0.232,0.537,0.4,0.377,0.833c-0.053,0.144,0.05,0.345,0.098,0.613   c0.375-0.39,0.604-0.896,1.215-0.557c-0.008,0.391-0.375,0.94,0.373,1.055c-0.176,0.595,0.135,1.539,0.58,1.916   c0.325,0.274,0.619,0.588,1.011,0.966c0.144-0.071,0.407-0.201,0.688-0.339c0.131,0.194,0.258,0.382,0.369,0.546   c1.22-0.074,2.187-0.638,3.079-1.387c0.553-0.463,1.176-0.297,1.531,0.352c0.102,0.184,0.225,0.362,0.365,0.516   c0.34,0.368,0.508,0.722,0.221,1.23c-0.084,0.147,0.064,0.534,0.223,0.69c0.395,0.387,0.562,0.839,0.666,1.361   c0.061,0.308,0.252,0.59,0.4,0.921c0.803-0.146,1.455,0.127,2.17,0.495c0.639,0.327,1.193,0.726,1.775,1.117   c0.305,0.206,0.686,0.3,1.027,0.454c0.758,0.341,1.193,0.902,1.201,1.76c0,0.093,0.018,0.214,0.076,0.273   c0.576,0.578,1.137,1.175,1.76,1.697c0.15,0.126,0.543,0.062,0.775-0.032c0.275-0.113,0.484-0.374,0.746-0.536   c0.674-0.419,1.348-0.842,2.043-1.221c0.969-0.525,2.082-0.868,2.895-1.568c0.605-0.521,1.352-1.005,1.643-1.953   c0.268-0.872,0.965-1.611,1.469-2.411c0.162-0.257,0.377-0.503,0.459-0.785c0.186-0.644,1.092-1.272,1.771-1.246   c0.305,0.013,0.652-0.081,0.916-0.237c0.631-0.375,1.217-0.823,1.832-1.225c0.094-0.061,0.266-0.074,0.371-0.033   c0.898,0.341,1.852,0.558,2.643,1.146c0.121,0.09,0.326,0.179,0.338,0.287c0.076,0.629,0.574,0.437,0.941,0.582   c0.895,0.353,1.998,0.396,2.486,1.463c0.055,0.117,0.191,0.24,0.314,0.273c0.504,0.142,1.033,0.204,1.52,0.38   c0.498,0.182,0.908,0.167,1.229-0.272c0.27-0.373,0.58-0.462,1.043-0.397c0.553,0.078,1.133-0.041,1.561,0.473   c0.072,0.088,0.309,0.108,0.439,0.068c1.109-0.347,1.719,0.504,2.459,1.021c0.252,0.177,0.395,0.596,0.795,0.372   c0.488-0.274,1.189-0.265,1.336-1.022c0.09-0.466,0.301-0.907,0.396-1.374c0.084-0.401,0.133-0.826,0.1-1.232   c-0.027-0.358,0.033-0.586,0.307-0.85c0.697-0.674,1.516-1.12,2.438-1.339c0.9-0.213,1.828-0.298,2.746-0.022   c0.104,0.03,0.229,0.064,0.322,0.035c0.418-0.13,0.857-0.227,1.232-0.438c1.174-0.66,2.363-0.195,3.549-0.112   c0.26,0.019,0.518,0.086,0.969,0.164c-0.1-0.485-0.232-0.86-0.238-1.236c-0.008-0.36,0.117-0.725,0.164-0.976   c0.953,0.258,1.809,0.484,2.658,0.727c0.178,0.051,0.361,0.133,0.5,0.249c0.338,0.279,0.648,0.59,1.121,1.025   c-0.225,0.598-0.508,1.383-0.816,2.159c-0.479,1.2-0.912,2.401-0.91,3.726c0.002,1.5,0.465,2.875,1.027,4.228   c1.541,3.699,2.525,7.545,2.969,11.519c0.092,0.837-0.07,1.724-0.23,2.564c-0.312,1.652-0.707,3.288-1.082,4.995   c-0.539-0.103-1.213-0.207-1.875-0.362c-0.467-0.11-0.67,0.04-0.723,0.508c-0.072,0.62-0.076,1.276-0.301,1.842   c-0.277,0.701-0.689,1.382-1.4,1.771c-0.42,0.229-0.439,0.547-0.24,0.904c0.086,0.149,0.26,0.332,0.41,0.348   c0.426,0.046,0.531,0.258,0.549,0.648c0.014,0.273,0.197,0.535,0.234,0.812c0.055,0.406,0.121,0.832,0.053,1.227   c-0.098,0.576-0.092,1.074,0.264,1.582c0.703,1.006,1.055,2.154,1.242,3.363c0.076,0.488,0.295,0.953,0.381,1.439   c0.135,0.76,0.158,1.543,0.332,2.291c0.121,0.523,0.371,1.031,0.643,1.5c0.279,0.477,0.654,0.898,0.984,1.348   c0.43,0.586,0.389,0.854-0.203,1.297c-0.17,0.127-0.348,0.244-0.516,0.369c-0.617,0.461-0.617,0.463-0.73,1.168   c-0.133-0.156-0.246-0.289-0.412-0.48c0.023,0.291,0.041,0.512,0.062,0.785c-0.639-0.291-1.223-0.641-1.928-0.283   c-0.15,0.076-0.42-0.078-0.713-0.143c-0.004,0.145-0.01,0.336-0.014,0.486c-0.246-0.227-0.477-0.602-0.785-0.682   c-0.336-0.088-0.752,0.072-1.121,0.17c-0.842,0.225-0.598,0.873-0.477,1.545c-0.135-0.104-0.213-0.133-0.232-0.184   c-0.289-0.729-0.387-0.844-1.33-0.387c-0.375,0.182-0.74,0.436-1.018,0.742c-0.133,0.145-0.088,0.486-0.061,0.732   c0.025,0.23,0.133,0.451,0.205,0.678c-0.051,0.021-0.102,0.043-0.152,0.064c-0.096-0.166-0.197-0.33-0.285-0.5   c-0.217-0.422-0.555-0.518-0.957-0.322c-0.566,0.275-1.135,0.559-1.664,0.9c-0.156,0.104-0.232,0.406-0.254,0.627   c-0.021,0.211,0.074,0.436,0.037,0.686c-0.143-0.275-0.283-0.553-0.426-0.828c-0.025,0.006-0.049,0.012-0.074,0.018   c0.061,0.287,0.119,0.574,0.215,1.016c-0.129-0.189-0.178-0.242-0.203-0.305c-0.459-1.098-0.566-1.16-1.652-0.682   c-0.543,0.24-1.043,0.572-1.564,0.854c-0.568,0.311-0.848,0.742-0.646,1.414c-0.109-0.188-0.219-0.375-0.346-0.594   c-0.039,0.141-0.068,0.244-0.098,0.355c-0.654-0.57-2.123-0.324-2.412,0.457c-0.115,0.312,0.012,0.82,0.209,1.117   c0.295,0.441,0.184,0.668-0.209,0.863c-0.641,0.32-1.291,0.617-1.938,0.924L69.027,72.856z"
       id="path16"
       fill="#00B8F1" /><path
       clip-path="url(#SVGID_2_)"
       d="M13.21,2.766c-0.118,0.345-0.219,0.672-0.341,0.99   c-0.173,0.453-0.056,0.701,0.456,0.725c0.187,0.009,0.373,0.066,0.641,0.117c-0.059,0.368-0.093,0.723-0.176,1.064   c-0.098,0.403,0.015,0.645,0.401,0.826c0.675,0.319,1.328,0.687,2.051,1.065c-0.12,0.258-0.17,0.5-0.314,0.649   c-0.644,0.669-0.944,1.621-1.839,2.095c-0.399,0.212-0.345,0.964,0.002,1.317c0.339,0.346,0.833,0.578,0.776,1.194   c-0.074,0.812,0.039,1.652-0.52,2.37c-0.389,0.498-0.736,1.032-1.06,1.575c-0.175,0.293-0.36,0.405-0.697,0.34   c-1.004-0.195-2.011-0.371-3.057-0.562c-0.064,0.252-0.089,0.628-0.254,0.927c-0.259,0.469-0.585,0.908-0.941,1.31   c-0.121,0.138-0.416,0.178-0.627,0.17c-0.842-0.036-1.683-0.107-2.563-0.169c0.018,0.126,0.042,0.215,0.041,0.304   c-0.003,0.272,0.075,0.726-0.042,0.783c-0.382,0.192-0.833,0.264-1.266,0.323c-0.08,0.011-0.265-0.246-0.286-0.396   c-0.147-1.041-0.263-2.086-0.39-3.129c0.416-0.243,0.812-0.471,1.204-0.705c0.942-0.562,1.53-1.335,1.621-2.478   c0.037-0.463,0.275-0.908,0.388-1.369c0.052-0.209,0.101-0.475,0.017-0.652c-0.346-0.732-0.743-1.44-1.208-2.321   c0.434-0.073,0.745-0.17,1.055-0.169c0.744,0.001,1.488,0.064,2.231,0.06c0.15-0.001,0.334-0.165,0.441-0.302   c1.176-1.517,1.772-3.302,2.341-5.1c0.029-0.091,0.05-0.186,0.087-0.273C12.005,1.895,11.761,1.98,13.21,2.766"
       id="path18"
       fill="#00B8F1" /><path
       clip-path="url(#SVGID_2_)"
       d="M10.902,21.748c0.158-0.494,0.199-0.929,0.421-1.228   c0.214-0.288,0.606-0.599,0.935-0.617c0.816-0.045,1.492-0.266,1.982-0.996c0.062,0.521,0.115,0.965,0.168,1.399   c-0.786,0.462-1.567,0.975-2.4,1.383C11.704,21.839,11.277,21.735,10.902,21.748"
       id="path20"
       fill="#00B8F1" /><path
       clip-path="url(#SVGID_2_)"
       d="M57.635,71.79c0.197,1.002-0.023,1.676-0.916,2.066   c-0.32,0.141-0.578,0.422-0.91,0.672c-0.062-0.08-0.197-0.232-0.303-0.404c-0.262-0.422-0.32-0.768,0.227-1.072   C56.375,72.694,56.967,72.239,57.635,71.79"
       id="path22"
       fill="#00B8F1" /></g><text
     xml:space="preserve"
     style="font-style:normal;font-variant:normal;font-weight:bold;font-stretch:normal;font-size:10.66666698px;line-height:0%;font-family:Georgia;-inkscape-font-specification:'Georgia, Bold';font-variant-ligatures:normal;font-variant-caps:normal;font-variant-numeric:normal;font-feature-settings:normal;text-align:center;writing-mode:lr-tb;text-anchor:middle;display:inline;fill:#000000;fill-opacity:1;stroke:none;stroke-width:0.55082434;stroke-linecap:butt;stroke-linejoin:miter;stroke-miterlimit:4;stroke-dasharray:none;stroke-opacity:1"
     x="71.060936"
     y="23.019552"
     id="text5105-7"
     transform="scale(0.77459669,1.2909944)"><tspan
       sodipodi:role="line"
       x="71.060936"
       y="23.019552"
       id="tspan5153-3"
       style="font-style:normal;font-variant:normal;font-weight:normal;font-stretch:normal;font-size:10.66666698px;line-height:1.25;font-family:Georgia;-inkscape-font-specification:'Georgia, Normal';font-variant-ligatures:normal;font-variant-caps:normal;font-variant-numeric:normal;font-feature-settings:normal;text-align:center;writing-mode:lr-tb;text-anchor:middle;fill:#666666;fill-opacity:1;stroke-width:0.55082434">1.608.746 habitantes</tspan><tspan
       sodipodi:role="line"
       x="71.060936"
       y="36.352886"
       style="font-style:normal;font-variant:normal;font-weight:normal;font-stretch:normal;font-size:10.66666698px;line-height:1.25;font-family:Georgia;-inkscape-font-specification:'Georgia, Normal';font-variant-ligatures:normal;font-variant-caps:normal;font-variant-numeric:normal;font-feature-settings:normal;text-align:center;writing-mode:lr-tb;text-anchor:middle;fill:#666666;fill-opacity:1;stroke-width:0.55082434"
       id="tspan3887">101,4 km^2</tspan></text>
</svg>