<?xml version="1.0" encoding="utf-8"?>
<!-- Generator: Adobe Illustrator 16.0.4, SVG Export Plug-In . SVG Version: 6.00 Build 0)  -->
<!DOCTYPE svg PUBLIC "-//W3C//DTD SVG 1.1//EN" "http://www.w3.org/Graphics/SVG/1.1/DTD/svg11.dtd">
<svg version="1.1" id="Capa_1" xmlns="http://www.w3.org/2000/svg" xmlns:xlink="http://www.w3.org/1999/xlink" x="0px" y="0px"
	 width="15.485px" height="27.936px" viewBox="0 0 15.485 27.936" enable-background="new 0 0 15.485 27.936" xml:space="preserve">
<g>
	<defs>
		<rect id="SVGID_5_" x="0.656" y="0.516" width="14.173" height="26.905"/>
	</defs>
	<clipPath id="SVGID_2_">
		<use xlink:href="#SVGID_5_"  overflow="visible"/>
	</clipPath>
	<path clip-path="url(#SVGID_2_)" fill="#6D6E70" d="M7.218,9.293c0,0.873-0.796,1.809-1.828,1.809V25.85
		c0,2.092-2.854,2.092-2.854,0V11.102c-1.004,0-1.879-0.773-1.879-1.934V1.052c0-0.706,1.021-0.733,1.021,0.028v6h0.854V1.024
		c0-0.648,0.983-0.69,0.983,0.027V7.08h0.884V1.032c0-0.679,0.955-0.705,0.955,0.027V7.08h0.867V1.032
		c0-0.67,0.997-0.698,0.997,0.027V9.293z"/>
	<path clip-path="url(#SVGID_2_)" fill="#6D6E70" d="M14.83,2.938v22.904c0,2.047-2.859,2.018-2.859,0v-9.088h-1.523V2.938
		C10.447-0.277,14.83-0.277,14.83,2.938"/>
</g>
</svg>
