<?xml version="1.0" encoding="utf-8"?>
<!-- Generator: Adobe Illustrator 16.0.4, SVG Export Plug-In . SVG Version: 6.00 Build 0)  -->
<!DOCTYPE svg PUBLIC "-//W3C//DTD SVG 1.1//EN" "http://www.w3.org/Graphics/SVG/1.1/DTD/svg11.dtd">
<svg version="1.1" id="Capa_1" xmlns="http://www.w3.org/2000/svg" xmlns:xlink="http://www.w3.org/1999/xlink" x="0px" y="0px"
	 width="16.877px" height="17.233px" viewBox="0 0 16.877 17.233" enable-background="new 0 0 16.877 17.233" xml:space="preserve">
<g>
	<defs>
		<rect id="SVGID_5_" x="0.517" y="0.695" width="15.844" height="15.844"/>
	</defs>
	<clipPath id="SVGID_2_">
		<use xlink:href="#SVGID_5_"  overflow="visible"/>
	</clipPath>
	<circle clip-path="url(#SVGID_2_)" fill="none" stroke="#6D6E70" stroke-width="1.176" cx="8.438" cy="8.617" r="7.334"/>
	<path clip-path="url(#SVGID_2_)" fill="#6D6E70" d="M6.204,6.263c0.377-0.154,0.73-0.256,1.037-0.436
		C7.907,5.437,8.54,5.437,9.208,5.826c0.312,0.182,0.67,0.287,1.025,0.434V5.734C9.972,5.72,9.731,5.71,9.481,5.699
		c-0.018-0.246-0.034-0.461-0.05-0.672H7.017c-0.016,0.24-0.03,0.455-0.045,0.674C6.692,5.714,6.452,5.728,6.204,5.74V6.263z
		 M3.4,12.091c0-0.311-0.015-0.545,0.008-0.775c0.007-0.076,0.091-0.18,0.163-0.211c0.627-0.262,1.262-0.441,1.91-0.061
		c0.025,0.014,0.066-0.002,0.145-0.008c-0.072-1.025,0.211-2.08-0.375-3.045c-0.09-0.148-0.143-0.32-0.213-0.482
		c-0.232-0.541-0.195-0.66,0.334-0.885c0.182-0.076,0.242-0.178,0.235-0.369c-0.013-0.348-0.004-0.697-0.004-1.08
		C5.87,5.162,6.109,5.15,6.38,5.136c0.013-0.229,0.025-0.443,0.039-0.695h1.088V3.484h1.412v0.934h1.119v0.709
		c0.274,0.018,0.522,0.033,0.809,0.051c0,0.367,0.012,0.717-0.004,1.064c-0.008,0.205,0.06,0.312,0.256,0.393
		C11.591,6.833,11.675,7,11.425,7.462c-0.508,0.938-0.701,1.92-0.601,2.973c0.019,0.195,0.002,0.395,0.002,0.711
		c0.767-0.523,1.472-0.322,2.194,0.029v0.91c-0.21-0.07-0.391-0.107-0.551-0.188c-0.383-0.193-0.762-0.207-1.146-0.014
		c-0.448,0.229-0.891,0.246-1.344,0.006c-0.354-0.188-0.722-0.189-1.079-0.006c-0.45,0.234-0.895,0.236-1.345,0.002
		c-0.371-0.193-0.745-0.176-1.112,0.016c-0.414,0.217-0.833,0.225-1.247,0.014c-0.43-0.219-0.845-0.227-1.272,0.008
		C3.788,12,3.622,12.023,3.4,12.091"/>
	<path clip-path="url(#SVGID_2_)" fill="#6D6E70" d="M13.022,12.583v0.969c-0.232-0.072-0.438-0.109-0.617-0.197
		c-0.362-0.182-0.715-0.203-1.076-0.02c-0.461,0.234-0.918,0.252-1.376-0.004c-0.336-0.188-0.677-0.166-1.011-0.002
		c-0.476,0.23-0.946,0.227-1.418-0.004c-0.363-0.178-0.719-0.172-1.075,0.025c-0.41,0.229-0.833,0.227-1.246,0.018
		c-0.423-0.213-0.823-0.213-1.239,0.02c-0.145,0.08-0.324,0.098-0.529,0.154v-0.943c0.262-0.104,0.524-0.266,0.803-0.299
		c0.297-0.035,0.638-0.016,0.908,0.1c0.471,0.201,0.904,0.211,1.35-0.014c0.34-0.172,0.681-0.176,1.013-0.01
		c0.476,0.234,0.938,0.236,1.415,0.002c0.344-0.17,0.695-0.164,1.047,0.014c0.434,0.219,0.868,0.234,1.312,0.002
		c0.396-0.207,0.797-0.229,1.203,0.014C12.642,12.5,12.835,12.523,13.022,12.583"/>
</g>
</svg>
