<?xml version="1.0" encoding="utf-8"?>
<!-- Generator: Adobe Illustrator 16.0.4, SVG Export Plug-In . SVG Version: 6.00 Build 0)  -->
<!DOCTYPE svg PUBLIC "-//W3C//DTD SVG 1.1//EN" "http://www.w3.org/Graphics/SVG/1.1/DTD/svg11.dtd">
<svg version="1.1" id="Capa_1" xmlns="http://www.w3.org/2000/svg" xmlns:xlink="http://www.w3.org/1999/xlink" x="0px" y="0px"
	 width="27.045px" height="31.361px" viewBox="0 0 27.045 31.361" enable-background="new 0 0 27.045 31.361" xml:space="preserve">
<g>
	<defs>
		<rect id="SVGID_5_" x="0.625" y="0.636" width="25.795" height="30.089"/>
	</defs>
	<clipPath id="SVGID_2_">
		<use xlink:href="#SVGID_5_"  overflow="visible"/>
	</clipPath>
	<path clip-path="url(#SVGID_2_)" fill="#6D6E70" d="M13.664,16.002c0.34-1.691,0.686-3.381,1.018-5.073
		c0.23-1.174,0.435-2.353,0.662-3.527c0.138-0.704,0.477-0.955,1.216-0.953c2.376,0.007,4.752,0.019,7.129,0.009
		c0.668-0.003,0.962,0.347,1.077,0.946c0.498,2.621,1.001,5.242,1.501,7.865c0.052,0.271,0.11,0.545,0.14,0.82
		c0.083,0.793-0.206,1.174-0.967,1.305c-0.666,0.115-1.091-0.205-1.253-0.957c-0.126-0.586-0.245-1.172-0.356-1.76
		c-0.106-0.561-0.201-1.125-0.428-1.688c0,0.215,0,0.428,0,0.643c0,4.988-0.014,9.977,0.012,14.965
		c0.004,0.912-0.258,1.58-1.139,1.928h-0.514c-0.875-0.336-1.174-0.979-1.157-1.898c0.042-2.375,0.022-4.752,0.026-7.129
		c0.002-0.953,0-1.906,0-2.854h-1.145c0,0.217,0.001,0.385,0,0.553c-0.002,3.146-0.031,6.295,0.012,9.439
		c0.012,0.898-0.26,1.52-1.078,1.889h-0.515c-0.907-0.303-1.185-0.947-1.178-1.875c0.032-4.047,0.014-8.094,0.015-12.141
		c0-1.211,0-2.422,0-3.631c-0.32,1.09-0.548,2.191-0.744,3.297c-0.097,0.551-0.223,1.1-0.854,1.215
		c-0.643,0.117-1.171-0.133-1.48-0.746V16.002z"/>
	<path clip-path="url(#SVGID_2_)" fill="#6D6E70" d="M20.477,0.835c1.392,0.54,1.979,1.271,1.961,2.437
		c-0.02,1.174-0.881,2.175-1.996,2.319c-1.197,0.156-2.327-0.539-2.657-1.635c-0.347-1.147,0.164-2.341,1.226-2.861
		c0.187-0.091,0.377-0.173,0.566-0.26H20.477z"/>
	<path clip-path="url(#SVGID_2_)" fill="#6D6E70" d="M13.381,15.629c-0.286,0.582-0.758,0.869-1.398,0.789
		c-0.612-0.08-0.768-0.576-0.91-1.09c-0.508-1.814-1.033-3.621-1.555-5.432c-0.047-0.163-0.109-0.32-0.209-0.613
		c-0.275,0.892-0.531,1.646-0.725,2.418c-0.051,0.197,0.046,0.469,0.152,0.664c1.375,2.533,2.767,5.061,4.152,7.59
		c0.092,0.17,0.174,0.344,0.295,0.586h-3.55v0.744c-0.001,2.732,0.002,5.465-0.003,8.197c-0.002,0.816-0.354,1.215-1.064,1.236
		c-0.797,0.025-1.187-0.342-1.188-1.162c-0.005-2.732,0.001-5.465,0.002-8.199v-0.764c-0.265-0.012-0.478-0.02-0.784-0.035
		c0,0.629,0,1.221,0,1.812c0.001,2.398,0.006,4.797,0.001,7.197c-0.002,0.777-0.344,1.141-1.05,1.154
		c-0.795,0.018-1.171-0.338-1.174-1.182c-0.01-2.709-0.002-5.42-0.002-8.131c0-0.26,0-0.52,0-0.85h-3.61
		c0.755-1.381,1.45-2.656,2.149-3.934c0.767-1.4,1.557-2.789,2.287-4.207c0.15-0.291,0.168-0.711,0.098-1.039
		c-0.145-0.667-0.391-1.309-0.65-2.138c-0.504,1.772-0.957,3.366-1.408,4.958c-0.141,0.49-0.256,0.988-0.418,1.471
		c-0.215,0.648-0.715,0.891-1.363,0.695c-0.665-0.199-0.965-0.645-0.774-1.307C1.438,12.42,2.225,9.79,2.992,7.154
		c0.16-0.552,0.541-0.852,1.068-0.979c1.973-0.476,3.945-0.529,5.918,0.023c0.631,0.176,0.947,0.629,1.119,1.207
		c0.678,2.27,1.342,4.545,2.014,6.814c0.086,0.293,0.18,0.584,0.27,0.877V15.629z"/>
	<path clip-path="url(#SVGID_2_)" fill="#6D6E70" d="M6.758,4.981c-1.24-0.003-2.186-0.956-2.175-2.192
		c0.011-1.213,1.004-2.173,2.226-2.152C7.991,0.657,8.96,1.631,8.967,2.808C8.975,4.02,7.995,4.985,6.758,4.981"/>
</g>
</svg>
