<?xml version="1.0" encoding="utf-8"?>
<!-- Generator: Adobe Illustrator 16.0.4, SVG Export Plug-In . SVG Version: 6.00 Build 0)  -->
<!DOCTYPE svg PUBLIC "-//W3C//DTD SVG 1.1//EN" "http://www.w3.org/Graphics/SVG/1.1/DTD/svg11.dtd">
<svg version="1.1" id="Capa_1" xmlns="http://www.w3.org/2000/svg" xmlns:xlink="http://www.w3.org/1999/xlink" x="0px" y="0px"
	 width="38.75px" height="37.25px" viewBox="0 0 38.75 37.25" enable-background="new 0 0 38.75 37.25" xml:space="preserve">
<g>
	<defs>
		<rect id="SVGID_1_" x="2.5" y="1.719" width="33.199" height="32.281"/>
	</defs>
	<clipPath id="SVGID_2_">
		<use xlink:href="#SVGID_1_"  overflow="visible"/>
	</clipPath>
	<path clip-path="url(#SVGID_2_)" fill="#6D6E70" d="M22.988,22.039c-0.922,2.047-1.799,3.999-2.678,5.951
		c-0.725,1.611-1.448,3.225-2.179,4.833c-0.374,0.824-1.013,1.187-1.881,1.09c-0.751-0.084-1.329-0.599-1.454-1.436
		c-0.054-0.36,0.034-0.789,0.186-1.13c1.784-3.998,3.595-7.984,5.384-11.979c0.074-0.166,0.086-0.444-0.005-0.586
		c-0.592-0.927-0.675-1.904-0.348-2.925c0.343-1.068,0.722-2.127,1.083-3.189c0.018-0.055,0.034-0.109,0.077-0.247
		c-0.632,0.458-1.211,0.808-1.561,1.473c-0.715,1.358-1.506,2.675-2.261,4.011c-0.256,0.452-0.564,0.821-1.122,0.912
		c-0.099,0.017-0.204,0.166-0.258,0.277c-1.983,4.146-3.962,8.293-5.935,12.443c-0.22,0.461-0.458,0.888-0.869,1.015
		c-0.168-0.522-0.257-1.065-0.516-1.508c-0.168-0.289-0.557-0.501-0.891-0.631c-0.833-0.325-1.594,0.018-2.253,0.965
		c-0.777-0.377-1.577-0.729-2.341-1.146c-0.655-0.356-0.843-1.145-0.492-1.889c0.935-1.979,1.882-3.952,2.824-5.927
		c0.155-0.324,0.294-0.657,0.464-0.974c0.379-0.704,1.161-0.989,1.886-0.653c1.558,0.723,3.106,1.468,4.653,2.214
		c0.188,0.091,0.347,0.245,0.545,0.388c0.755-1.582,1.508-3.16,2.257-4.73c-0.693-0.724-0.765-1.226-0.288-2.068
		c0.902-1.595,1.803-3.19,2.726-4.772c0.152-0.26,0.388-0.491,0.632-0.674c1.696-1.263,3.406-2.507,5.109-3.762
		c0.912-0.671,2.537-0.624,3.584,0.111c0.61,0.428,1.013,1.001,1.279,1.697c0.536,1.399,1.1,2.789,1.672,4.175
		c0.061,0.145,0.23,0.286,0.383,0.345c1.412,0.543,2.832,1.064,4.248,1.597c0.865,0.325,1.242,1.039,0.957,1.802
		c-0.283,0.761-0.994,1.063-1.852,0.752c-1.717-0.62-3.426-1.261-5.139-1.893c-0.451-0.167-0.766-0.475-0.952-0.917
		c-0.083-0.195-0.171-0.388-0.288-0.658c-0.617,1.52-1.178,2.97-1.803,4.393c-0.193,0.443-0.115,0.722,0.166,1.073
		c0.852,1.066,1.666,2.161,2.498,3.243c0.416,0.542,0.574,1.175,0.654,1.835c0.282,2.378,0.561,4.758,0.842,7.137
		c0.107,0.904-0.654,1.808-1.621,1.916c-0.849,0.095-1.752-0.645-1.854-1.522c-0.256-2.209-0.509-4.418-0.766-6.626
		c-0.051-0.453-0.176-0.859-0.489-1.231C24.318,23.799,23.688,22.939,22.988,22.039"/>
	<path clip-path="url(#SVGID_2_)" fill="#6D6E70" d="M28.28,1.719c1.417,0.002,2.587,1.15,2.591,2.545
		c0.006,1.428-1.17,2.594-2.607,2.586c-1.454-0.008-2.581-1.146-2.573-2.599C25.697,2.842,26.85,1.717,28.28,1.719"/>
	<path clip-path="url(#SVGID_2_)" fill="#6D6E70" d="M8.442,32.135c0.004,0.716-0.519,1.257-1.224,1.268
		c-0.665,0.009-1.249-0.575-1.251-1.254c-0.003-0.688,0.554-1.259,1.235-1.265C7.891,30.879,8.438,31.431,8.442,32.135"/>
</g>
</svg>
