<?xml version="1.0" encoding="utf-8"?>
<!-- Generator: Adobe Illustrator 16.0.4, SVG Export Plug-In . SVG Version: 6.00 Build 0)  -->
<!DOCTYPE svg PUBLIC "-//W3C//DTD SVG 1.1//EN" "http://www.w3.org/Graphics/SVG/1.1/DTD/svg11.dtd">
<svg version="1.1" id="Capa_1" xmlns="http://www.w3.org/2000/svg" xmlns:xlink="http://www.w3.org/1999/xlink" x="0px" y="0px"
	 width="16.877px" height="17.233px" viewBox="0 0 16.877 17.233" enable-background="new 0 0 16.877 17.233" xml:space="preserve">
<g>
	<defs>
		<rect id="SVGID_5_" x="0.517" y="0.694" width="15.844" height="15.844"/>
	</defs>
	<clipPath id="SVGID_2_">
		<use xlink:href="#SVGID_5_"  overflow="visible"/>
	</clipPath>
	<circle clip-path="url(#SVGID_2_)" fill="none" stroke="#6D6E70" stroke-width="1.176" cx="8.438" cy="8.616" r="7.334"/>
	<path clip-path="url(#SVGID_2_)" fill="#6D6E70" d="M5.35,8.115c-0.231,0-0.401-0.188-0.385-0.414
		C5.03,6.796,5.083,6.287,5.193,5.38c0.024-0.193,0.191-0.334,0.442-0.334h5.615c0.25,0,0.418,0.154,0.441,0.348
		c0.122,0.955,0.164,1.377,0.232,2.301c0.019,0.262-0.16,0.42-0.362,0.42H5.35z M6.694,4.447c-0.142,0-0.257-0.115-0.257-0.256
		c0-0.143,0.115-0.258,0.257-0.258h3.512c0.142,0,0.256,0.115,0.256,0.258c0,0.141-0.114,0.256-0.256,0.256H6.694z M10.792,10.207
		c0-0.311,0.254-0.564,0.565-0.564s0.565,0.254,0.565,0.564c0,0.312-0.254,0.566-0.565,0.566S10.792,10.519,10.792,10.207
		 M4.956,10.207c0-0.311,0.254-0.564,0.565-0.564s0.563,0.254,0.563,0.564c0,0.312-0.252,0.566-0.563,0.566
		S4.956,10.519,4.956,10.207 M10.79,12.101v0.678c0,0.314,0.254,0.568,0.567,0.568s0.567-0.254,0.567-0.568
		c0-0.172-0.01-0.678-0.01-0.678h0.75V8.083c0,0-0.205-2.035-0.291-2.844c-0.094-0.9-0.303-1.164-0.937-1.463
		c-0.909-0.43-1.927-0.607-2.999-0.607s-2.09,0.178-3,0.607C4.806,4.076,4.598,4.339,4.503,5.24
		C4.417,6.048,4.212,8.083,4.212,8.083v4.018h0.75c0,0-0.01,0.506-0.01,0.678c0,0.314,0.254,0.568,0.567,0.568
		s0.567-0.254,0.567-0.568v-0.678H10.79z"/>
</g>
</svg>
