<?xml version="1.0" encoding="utf-8"?>
<!-- Generator: Adobe Illustrator 16.0.4, SVG Export Plug-In . SVG Version: 6.00 Build 0)  -->
<!DOCTYPE svg PUBLIC "-//W3C//DTD SVG 1.1//EN" "http://www.w3.org/Graphics/SVG/1.1/DTD/svg11.dtd">
<svg version="1.1" id="Capa_1" xmlns="http://www.w3.org/2000/svg" xmlns:xlink="http://www.w3.org/1999/xlink" x="0px" y="0px"
	 width="7.847px" height="20.764px" viewBox="0 0 7.847 20.764" enable-background="new 0 0 7.847 20.764" xml:space="preserve">
<g>
	<defs>
		<rect id="SVGID_5_" x="0.231" y="0.583" width="7.384" height="19.6"/>
	</defs>
	<clipPath id="SVGID_2_">
		<use xlink:href="#SVGID_5_"  overflow="visible"/>
	</clipPath>
	<path clip-path="url(#SVGID_2_)" fill="#6D6E70" d="M5.353,8.023c0-1.773,0.002-3.547-0.003-5.321c0-0.181-0.022-0.365-0.069-0.539
		C5.044,1.281,3.956,0.868,3.189,1.365C2.704,1.679,2.511,2.133,2.512,2.706c0.006,3.609,0.002,7.22,0.005,10.832
		c0,0.117-0.031,0.186-0.137,0.248c-0.612,0.359-1.073,0.863-1.333,1.523c-0.425,1.082-0.3,2.107,0.391,3.049
		c0.942,1.281,2.714,1.645,4.077,0.812c1.086-0.662,1.613-1.646,1.521-2.924c-0.078-1.066-0.611-1.873-1.516-2.434
		c-0.119-0.074-0.172-0.146-0.172-0.295C5.354,11.686,5.353,9.855,5.353,8.023 M3.561,20.182c-0.177-0.041-0.354-0.074-0.53-0.121
		c-1.459-0.406-2.379-1.355-2.707-2.82c-0.25-1.121,0.014-2.168,0.756-3.061c0.215-0.262,0.487-0.479,0.746-0.701
		c0.097-0.084,0.121-0.166,0.121-0.283c0-3.5,0.002-7-0.002-10.501C1.942,2.127,2.101,1.628,2.493,1.212
		c0.297-0.317,0.664-0.513,1.09-0.6c0.035-0.008,0.068-0.021,0.103-0.03h0.501c0.256,0.099,0.53,0.166,0.764,0.302
		C5.534,1.222,5.854,1.75,5.909,2.421c0.027,0.348,0.013,0.699,0.013,1.048c0.001,3.199,0.003,6.394-0.005,9.594
		c-0.002,0.232,0.065,0.373,0.25,0.516c0.883,0.678,1.361,1.578,1.438,2.691c0.058,0.842-0.155,1.615-0.633,2.305
		c-0.519,0.75-1.224,1.256-2.116,1.48c-0.181,0.045-0.363,0.084-0.545,0.127H3.561z"/>
	<path clip-path="url(#SVGID_2_)" fill="#EC1C24" d="M4.782,6.508v0.205c0,2.596,0,5.196-0.004,7.792
		c0,0.137,0.037,0.217,0.156,0.285c0.822,0.459,1.168,1.469,0.883,2.332c-0.261,0.793-1.072,1.379-1.924,1.348
		c-0.843-0.033-1.449-0.447-1.783-1.209c-0.308-0.705-0.203-1.393,0.274-2c0.147-0.188,0.356-0.33,0.554-0.473
		c0.098-0.072,0.146-0.133,0.146-0.26c-0.004-2.592-0.003-5.184-0.003-7.776c0-0.289-0.031-0.254,0.263-0.256
		c0.448-0.002,0.896,0,1.346,0C4.715,6.496,4.739,6.502,4.782,6.508"/>
</g>
</svg>
