<?xml version="1.0" encoding="utf-8"?>
<!-- Generator: Adobe Illustrator 16.0.4, SVG Export Plug-In . SVG Version: 6.00 Build 0)  -->
<!DOCTYPE svg PUBLIC "-//W3C//DTD SVG 1.1//EN" "http://www.w3.org/Graphics/SVG/1.1/DTD/svg11.dtd">
<svg version="1.1" id="Capa_1" xmlns="http://www.w3.org/2000/svg" xmlns:xlink="http://www.w3.org/1999/xlink" x="0px" y="0px"
	 width="7.847px" height="20.764px" viewBox="0 0 7.847 20.764" enable-background="new 0 0 7.847 20.764" xml:space="preserve">
<g>
	<defs>
		<rect id="SVGID_1_" x="0.231" y="0.583" width="7.384" height="19.599"/>
	</defs>
	<clipPath id="SVGID_2_">
		<use xlink:href="#SVGID_1_"  overflow="visible"/>
	</clipPath>
	<path clip-path="url(#SVGID_2_)" fill="#6D6E70" d="M5.353,8.024c0-1.773,0.002-3.548-0.003-5.321c0-0.181-0.022-0.365-0.069-0.539
		C5.045,1.281,3.956,0.868,3.189,1.365C2.704,1.679,2.511,2.133,2.512,2.706c0.006,3.609,0.002,7.22,0.005,10.831
		c0,0.118-0.032,0.187-0.137,0.248c-0.612,0.36-1.073,0.863-1.333,1.524c-0.425,1.081-0.299,2.107,0.391,3.048
		c0.942,1.282,2.713,1.645,4.077,0.813c1.086-0.662,1.613-1.647,1.521-2.925c-0.078-1.066-0.611-1.872-1.516-2.433
		c-0.119-0.074-0.172-0.147-0.172-0.296C5.354,11.686,5.353,9.855,5.353,8.024 M3.561,20.181c-0.177-0.04-0.355-0.073-0.53-0.121
		c-1.459-0.405-2.379-1.355-2.707-2.82c-0.251-1.12,0.013-2.167,0.755-3.061c0.216-0.261,0.488-0.479,0.747-0.701
		c0.096-0.083,0.121-0.166,0.121-0.282c-0.001-3.5,0.002-7.001-0.003-10.501C1.943,2.127,2.101,1.628,2.493,1.212
		c0.298-0.317,0.665-0.513,1.09-0.6c0.035-0.008,0.069-0.021,0.103-0.03h0.501c0.256,0.099,0.53,0.166,0.764,0.302
		C5.534,1.222,5.854,1.75,5.909,2.421c0.027,0.348,0.013,0.699,0.013,1.048c0.001,3.198,0.003,6.395-0.005,9.593
		c-0.002,0.232,0.065,0.373,0.25,0.517c0.883,0.677,1.361,1.578,1.438,2.691c0.058,0.842-0.155,1.615-0.633,2.304
		c-0.519,0.751-1.224,1.256-2.116,1.48c-0.181,0.046-0.363,0.085-0.545,0.127H3.561z"/>
	<path clip-path="url(#SVGID_2_)" fill="#00ADEE" d="M4.782,12.483v0.205c0,2.597,0.001-0.781-0.004,1.816
		c0,0.138,0.037,0.216,0.157,0.283c0.822,0.46,1.167,1.469,0.882,2.334c-0.261,0.792-1.073,1.378-1.924,1.346
		c-0.842-0.03-1.449-0.445-1.782-1.207c-0.308-0.705-0.203-1.394,0.274-2c0.148-0.188,0.357-0.332,0.553-0.474
		c0.099-0.072,0.147-0.133,0.147-0.259c-0.004-2.592-0.003,0.791-0.003-1.801c0-0.288-0.031-0.255,0.263-0.256
		c0.448-0.002,0.897,0,1.345,0C4.715,12.471,4.74,12.478,4.782,12.483"/>
</g>
</svg>
