<?xml version="1.0" encoding="utf-8"?>
<!-- Generator: Adobe Illustrator 16.0.4, SVG Export Plug-In . SVG Version: 6.00 Build 0)  -->
<!DOCTYPE svg PUBLIC "-//W3C//DTD SVG 1.1//EN" "http://www.w3.org/Graphics/SVG/1.1/DTD/svg11.dtd">
<svg version="1.1" id="Capa_1" xmlns="http://www.w3.org/2000/svg" xmlns:xlink="http://www.w3.org/1999/xlink" x="0px" y="0px"
	 width="13.237px" height="11.988px" viewBox="0 0 13.237 11.988" enable-background="new 0 0 13.237 11.988" xml:space="preserve">
<g>
	<defs>
		<rect id="SVGID_5_" x="0.639" y="0.647" width="11.96" height="10.693"/>
	</defs>
	<clipPath id="SVGID_2_">
		<use xlink:href="#SVGID_5_"  overflow="visible"/>
	</clipPath>
	<path clip-path="url(#SVGID_2_)" fill="#6D6E70" d="M0.639,6.536V6.211C0.645,6.19,0.654,6.17,0.658,6.149
		C0.789,5.448,1.44,4.997,2.087,5.083c0.075,0.01,0.149,0.025,0.228,0.041C2.33,4.682,2.474,4.303,2.793,4
		c0.32-0.305,0.705-0.441,1.152-0.422c-0.017-0.746,0.209-1.4,0.692-1.955C5.119,1.067,5.736,0.747,6.47,0.667
		c0.634-0.07,1.229,0.061,1.772,0.396c0.735,0.455,1.164,1.125,1.324,1.973C9.595,3.03,9.613,3.026,9.632,3.02
		c0.351-0.127,0.71-0.154,1.079-0.098c0.861,0.131,1.59,0.783,1.807,1.627c0.031,0.121,0.055,0.242,0.081,0.363v0.439
		c-0.012,0.053-0.026,0.104-0.035,0.156c-0.079,0.473-0.292,0.881-0.632,1.215c-0.45,0.441-1.001,0.652-1.63,0.652
		c-2.767,0-5.531,0-8.296-0.002c-0.155,0-0.312-0.016-0.465-0.041C1.246,7.284,0.969,7.184,0.798,6.918
		C0.725,6.803,0.69,6.665,0.639,6.536"/>
	<path clip-path="url(#SVGID_2_)" fill="#6D6E70" d="M5.982,8.268c-0.27,0.896-0.535,1.771-0.802,2.654
		c-0.058-0.027-0.11-0.051-0.164-0.078c0.115-0.381,0.228-0.754,0.341-1.127C5.492,9.272,5.629,8.827,5.76,8.379
		c0.023-0.086,0.055-0.127,0.129-0.113C5.914,8.272,5.941,8.268,5.982,8.268"/>
	<path clip-path="url(#SVGID_2_)" fill="none" stroke="#6D6E70" stroke-width="0.592" stroke-miterlimit="10" d="M5.982,8.268
		c-0.27,0.896-0.535,1.771-0.802,2.654c-0.058-0.027-0.11-0.051-0.164-0.078c0.115-0.381,0.228-0.754,0.341-1.127
		C5.492,9.272,5.629,8.827,5.76,8.379c0.023-0.086,0.055-0.127,0.129-0.113C5.914,8.272,5.941,8.268,5.982,8.268z"/>
	<path clip-path="url(#SVGID_2_)" fill="#6D6E70" d="M3.945,10.926c-0.057-0.027-0.104-0.051-0.16-0.076
		c0.018-0.066,0.033-0.131,0.053-0.195c0.188-0.621,0.376-1.24,0.562-1.861c0.043-0.143,0.088-0.285,0.127-0.43
		c0.02-0.076,0.053-0.107,0.119-0.096c0.028,0.004,0.059,0,0.101,0C4.479,9.157,4.214,10.036,3.945,10.926"/>
	<path clip-path="url(#SVGID_2_)" fill="none" stroke="#6D6E70" stroke-width="0.592" stroke-miterlimit="10" d="M3.945,10.926
		c-0.057-0.027-0.104-0.051-0.16-0.076c0.018-0.066,0.033-0.131,0.053-0.195c0.188-0.621,0.376-1.24,0.562-1.861
		c0.043-0.143,0.088-0.285,0.127-0.43c0.02-0.076,0.053-0.107,0.119-0.096c0.028,0.004,0.059,0,0.101,0
		C4.479,9.157,4.214,10.036,3.945,10.926z"/>
	<path clip-path="url(#SVGID_2_)" fill="#6D6E70" d="M8.721,10.926c0.072-0.244,0.141-0.477,0.209-0.709
		c0.159-0.535,0.319-1.07,0.479-1.604c0.023-0.082,0.051-0.166,0.072-0.25c0.018-0.072,0.049-0.111,0.115-0.098
		c0.028,0.006,0.059,0.002,0.098,0.002C9.688,8.301,9.686,8.327,9.679,8.35C9.46,9.084,9.24,9.821,9.02,10.555
		c-0.037,0.125-0.074,0.25-0.109,0.377c-0.014,0.057-0.031,0.078-0.078,0.049C8.799,10.959,8.764,10.948,8.721,10.926"/>
	<path clip-path="url(#SVGID_2_)" fill="none" stroke="#6D6E70" stroke-width="0.592" stroke-miterlimit="10" d="M8.721,10.926
		c0.072-0.244,0.141-0.477,0.209-0.709c0.159-0.535,0.319-1.07,0.479-1.604c0.023-0.082,0.051-0.166,0.072-0.25
		c0.018-0.072,0.049-0.111,0.115-0.098c0.028,0.006,0.059,0.002,0.098,0.002C9.688,8.301,9.686,8.327,9.679,8.35
		C9.46,9.084,9.24,9.821,9.02,10.555c-0.037,0.125-0.074,0.25-0.109,0.377c-0.014,0.057-0.031,0.078-0.078,0.049
		C8.799,10.959,8.764,10.948,8.721,10.926z"/>
	<path clip-path="url(#SVGID_2_)" fill="#6D6E70" d="M8.451,8.268c-0.27,0.895-0.532,1.77-0.801,2.656
		c-0.052-0.023-0.104-0.047-0.162-0.074c0.041-0.141,0.078-0.271,0.119-0.404c0.188-0.625,0.377-1.252,0.566-1.877
		C8.197,8.493,8.224,8.42,8.24,8.342c0.016-0.064,0.045-0.08,0.096-0.074C8.369,8.272,8.402,8.268,8.451,8.268"/>
	<path clip-path="url(#SVGID_2_)" fill="none" stroke="#6D6E70" stroke-width="0.592" stroke-miterlimit="10" d="M8.451,8.268
		c-0.27,0.895-0.532,1.77-0.801,2.656c-0.052-0.023-0.104-0.047-0.162-0.074c0.041-0.141,0.078-0.271,0.119-0.404
		c0.188-0.625,0.377-1.252,0.566-1.877C8.197,8.493,8.224,8.42,8.24,8.342c0.016-0.064,0.045-0.08,0.096-0.074
		C8.369,8.272,8.402,8.268,8.451,8.268z"/>
	<path clip-path="url(#SVGID_2_)" fill="#6D6E70" d="M2.712,10.926c-0.057-0.027-0.106-0.049-0.164-0.076
		c0.041-0.139,0.08-0.273,0.12-0.408c0.205-0.68,0.41-1.361,0.618-2.041c0.049-0.158,0.015-0.129,0.159-0.133
		c0.018,0,0.035,0.002,0.068,0.004C3.246,9.159,2.98,10.038,2.712,10.926"/>
	<path clip-path="url(#SVGID_2_)" fill="none" stroke="#6D6E70" stroke-width="0.592" stroke-miterlimit="10" d="M2.712,10.926
		c-0.057-0.027-0.106-0.049-0.164-0.076c0.041-0.139,0.08-0.273,0.12-0.408c0.205-0.68,0.41-1.361,0.618-2.041
		c0.049-0.158,0.015-0.129,0.159-0.133c0.018,0,0.035,0.002,0.068,0.004C3.246,9.159,2.98,10.038,2.712,10.926z"/>
	<path clip-path="url(#SVGID_2_)" fill="#6D6E70" d="M6.416,10.926c-0.057-0.027-0.105-0.049-0.163-0.076
		c0.033-0.113,0.062-0.219,0.095-0.324c0.221-0.732,0.443-1.465,0.664-2.199c0.014-0.045,0.03-0.061,0.068-0.059
		c0.04,0.002,0.081,0,0.137,0C6.948,9.161,6.684,10.042,6.416,10.926"/>
	<path clip-path="url(#SVGID_2_)" fill="none" stroke="#6D6E70" stroke-width="0.592" stroke-miterlimit="10" d="M6.416,10.926
		c-0.057-0.027-0.105-0.049-0.163-0.076c0.033-0.113,0.062-0.219,0.095-0.324c0.221-0.732,0.443-1.465,0.664-2.199
		c0.014-0.045,0.03-0.061,0.068-0.059c0.04,0.002,0.081,0,0.137,0C6.948,9.161,6.684,10.042,6.416,10.926z"/>
</g>
</svg>
