<?xml version="1.0" encoding="utf-8"?>
<!-- Generator: Adobe Illustrator 16.0.4, SVG Export Plug-In . SVG Version: 6.00 Build 0)  -->
<!DOCTYPE svg PUBLIC "-//W3C//DTD SVG 1.1//EN" "http://www.w3.org/Graphics/SVG/1.1/DTD/svg11.dtd">
<svg version="1.1" id="Capa_1" xmlns="http://www.w3.org/2000/svg" xmlns:xlink="http://www.w3.org/1999/xlink" x="0px" y="0px"
	 width="16.877px" height="17.233px" viewBox="0 0 16.877 17.233" enable-background="new 0 0 16.877 17.233" xml:space="preserve">
<g>
	<defs>
		<rect id="SVGID_5_" x="0.517" y="0.694" width="15.844" height="15.844"/>
	</defs>
	<clipPath id="SVGID_2_">
		<use xlink:href="#SVGID_5_"  overflow="visible"/>
	</clipPath>
	<circle clip-path="url(#SVGID_2_)" fill="none" stroke="#6D6E70" stroke-width="1.176" cx="8.438" cy="8.616" r="7.334"/>
	<path clip-path="url(#SVGID_2_)" fill="#6D6E70" d="M9.267,4.419H7.61c-0.092,0-0.166-0.074-0.166-0.166v-0.57
		c0-0.092,0.074-0.166,0.166-0.166h1.656c0.092,0,0.166,0.074,0.166,0.166v0.57C9.433,4.345,9.358,4.419,9.267,4.419 M10.315,7.148
		H6.562c-0.369,0-0.666-0.299-0.666-0.666V5.386c0-0.369,0.297-0.666,0.666-0.666h3.754c0.369,0,0.666,0.297,0.666,0.666v1.096
		C10.981,6.849,10.685,7.148,10.315,7.148 M11.013,9.958c0,0.361-0.293,0.654-0.654,0.654c-0.362,0-0.654-0.293-0.654-0.654
		c0-0.363,0.292-0.654,0.654-0.654C10.72,9.304,11.013,9.595,11.013,9.958 M6.519,10.613c-0.36,0-0.653-0.293-0.653-0.654
		c0-0.363,0.293-0.654,0.653-0.654c0.361,0,0.654,0.291,0.654,0.654C7.173,10.32,6.88,10.613,6.519,10.613 M6.229,11.31
		l-1.791,2.648h1.017l1.222-1.807h3.522l1.222,1.807h1.018l-1.795-2.654c0.677-0.107,1.194-0.691,1.194-1.396V4.689
		c0-0.781-0.634-1.414-1.416-1.414H6.454c-0.781,0-1.415,0.633-1.415,1.414v5.219C5.039,10.599,5.571,11.218,6.229,11.31"/>
</g>
</svg>
