<?xml version="1.0" encoding="utf-8"?>
<!-- Generator: Adobe Illustrator 16.0.4, SVG Export Plug-In . SVG Version: 6.00 Build 0)  -->
<!DOCTYPE svg PUBLIC "-//W3C//DTD SVG 1.1//EN" "http://www.w3.org/Graphics/SVG/1.1/DTD/svg11.dtd">
<svg version="1.1" id="Layer_1" xmlns="http://www.w3.org/2000/svg" xmlns:xlink="http://www.w3.org/1999/xlink" x="0px" y="0px"
	 width="271.242px" height="328.087px" viewBox="0 0 271.242 328.087" enable-background="new 0 0 271.242 328.087"
	 xml:space="preserve">
<g>
	<path fill="#010101" d="M250.27,74.327c-0.974-0.263-1.967-0.511-2.938-0.755c-0.855-0.22-1.733-0.438-2.609-0.664
		c8.336-13.325,20.855-15.334,20.803-15.72c-0.057-0.396-12.872,0.391-22.24,15.328c-4.154-1.179-8.074-2.682-9.773-5.225
		c0.84-1.166,1.432-2.388,1.764-3.676c0.835-3.246-0.256-5.786-0.981-7.016c-0.728-1.216-1.78-2.247-3.046-2.993
		c0.57-2.31,3.586-6.808,4.56-7.505c0.726-0.508,1.667-0.797,2.665-1.111c2.453-0.758,5.495-1.7,6.871-6.499
		c0.622-2.185,0.04-4.341-1.605-5.907c-2.082-2-5.467-2.686-8.403-1.702c-3.323,1.106-6.407,3.794-9.158,7.975
		c-2.006,3.056-3.312,6.167-3.872,7.821c-2.34-0.514-4.984,0.01-6.582,0.831c-4.042-0.69-8.902-4.224-14.043-7.967
		c-3.996-2.915-8.315-6.062-12.88-8.352c-4.106-2.063-9.214-3.48-9.589-2.493c-0.561,1.48,8.402,6.311,8.892,13.187
		c0.106,1.611-0.39,3.02-1.509,4.188c-1.055,1.109-3.916,2.165-11.541,0.881c-5.283-0.902-10.867-2.569-14.568-3.667l-2.187-0.646
		c-2.378-0.668-8.031-2.157-13.623-2.886c-0.104-0.557-0.267-1.058-0.479-1.508c-1.492-3.083-8.234-3.537-14.759-3.975
		c-3.433-0.229-7.315-0.491-8.329-1.202c-0.93-0.65-1.505-5.844-1.901-10.373c-0.687-7.918-1.282-12.79-3.72-13.729
		c-2.396-0.921-7.632,1.275-15.348,4.737c-3.65,1.635-8.191,3.672-9.305,3.519c-1.21-0.172-5.389-4.745-7.773-7.317
		c-5.787-6.224-9.473-9.991-11.855-9.905c-2.35,0.096-5.419,4.374-10.201,11.402c-1.643,2.426-3.197,4.71-4.577,6.47
		c-1.95,2.497-2.676,2.798-2.86,2.825c-1.074,0.188-4.803-0.805-8.403-1.756c-3.562-0.952-7.587-2.024-11.001-2.555
		c-4.273-0.663-6.805-0.355-7.977,0.973c-2.113,2.399-1.643,9.217-1.187,15.8c0.157,2.347,0.319,4.568,0.325,6.324
		c0.009,2.433-0.289,3.02-0.383,3.14c-0.639,0.83-4.605,2.203-8.116,3.421c-6.624,2.29-13.482,4.655-14.796,7.787
		c-1.337,3.19,3.059,9.063,7.306,14.745c1.368,1.841,2.672,3.579,3.589,5.006c1.289,1.994,1.284,2.564,1.27,2.662
		c-0.155,1.133-3.371,4.322-5.956,6.876C3.256,88.049,0,91.464,0,93.881c0,2.776,4.785,6.213,11.549,10.761
		c2.836,1.91,5.763,3.884,6.422,4.832c0.707,1.036-0.27,4.508-1.041,7.294c-1.146,4.087-2.221,7.945-0.537,9.724
		c1.755,1.857,6.623,1.705,12.811,1.318c2.062-0.132,4.898-0.309,5.427-0.062c0.587,0.342,1.922,3.361,2.798,5.367
		c2.23,5.042,3.83,8.38,5.811,8.876c2.307,0.577,7.307-1.864,8.948-2.669c2.665-1.304,5.305-2.808,7.02-3.899
		c-0.153,2.011-0.405,3.963-0.798,5.551c-0.443-0.091-0.883-0.14-1.342-0.14c-3.738,0-6.768,2.959-6.768,6.61
		c0,3.008,2.064,5.548,4.879,6.351c-1.176,3.189-2.938,9.697-3.793,14.145c-3.525,0.742-4.367,5.391-4.784,7.686l-0.01,0.035
		c-0.05,0.291-5.4,29.406-12.931,43.932c-13.397,25.852-20.604,32.867-22.988,35.166c-0.919,0.902-1.469,1.438-1.248,2.248
		c0.516,1.785,5.201,2.807,10.617,1.939c3.812-0.607,7.68-2.135,11.285-4.438c-0.375,6.607,0.215,12.373,2.396,12.633
		c0.42,0.041,1.383,0.16,8.64-3.809c0.115,1.17,0.191,3.064,0.191,5.459c0,10.059-1.431,28.844-8.246,39.029
		c-1.206,0.848-2.222,2.279-2.815,3.977c-0.666,1.904-0.587,3.348-0.121,4.133c1.864,3.197,8.142,5.793,13.086,7.408
		c6.152,2.006,13.766,3.635,20.379,4.342c5.946,0.639,13.546,0.84,15.98-1.811c1.469-1.602,0.932-5.967,0.026-9.217
		c-0.977-3.486-2.626-6.879-4.634-9.539c-2.316-3.055-5.04-5.17-8.127-6.291c3.777-9.514,5.246-24.223,5.529-32.629
		c2.869,5.943,4.307,6.619,5.362,6.488c0.516-0.07,1.9-0.256,6.79-5.908c1.074-1.23,2.125-2.514,3.061-3.705
		c0.225,1.918,0.373,4.818,0.373,8.238c0,2.518-0.077,5.312-0.254,8.207c-0.611,9.979-2.215,18.621-4.523,24.359
		c-1.645,1.697-3.699,5.871-2.24,7.859c2.261,3.078,9.092,5.299,14.423,6.613c6.683,1.646,14.518,2.727,20.954,2.883
		c6.893,0.182,11.142-0.67,12.632-2.514c1.798-2.193,1.783-5.807-0.036-10.17c-1.354-3.25-3.611-6.582-6.202-9.133
		c-1.912-1.883-4.825-4.178-8.144-4.744c1.841-6.963,2.884-22.598,3.118-29.07c2.884,2.639,5.939,4.693,7.854,3.676
		c3.031-1.602,4.515-9.588,5.138-15.143c2.492,2.189,5.62,4.219,8.836,5.701c2.256,1.041,6.258,2.594,7.62,1.236
		c0.595-0.602,0.225-1.477-0.37-2.641c-0.478-0.961-1.249-2.322-2.229-4.051c-4.287-7.596-13.143-23.266-21.494-46.795
		c3.898,1.336,7.522,4.342,11.359,7.533c3.181,2.641,6.461,5.365,10.135,7.328c4.226,2.25,8.33,3.121,12.566,2.656
		c11.764-1.291,21.122-9.09,24.07-19.953c2.655,1.467,6.449,2.73,11.049,2.666c0.894,1.496,1.863,3.422,2.57,5.766
		c1.202,4.037,1.26,7.873,0.156,10.514c-1.521,3.648-4.12,6.873-6.412,9.715c-2.354,2.938-4.393,5.455-4.732,7.799
		c-0.42,2.881-0.1,6.172,0.908,9.277c1.669,5.141,5.252,9.715,9.309,8.582c7.931-2.205,3.712-14.355,4.719-15.756
		c0.18-0.238,0.979-0.975,1.825-1.758c4.528-4.186,15.122-14.006,15.033-22.607c-0.03-3.098-0.511-6.172-1.306-9.131
		c3.905,3.84,7.041,8.488,6.417,11c-0.53,2.107-4.149,6.186-7.053,9.457c-2.72,3.061-5.067,5.701-5.574,7.27
		c-1.808,5.564-0.816,12.359,2.352,16.141c1.839,2.209,4.23,3.182,6.896,2.82c7.807-1.062,4.426-12.59,5.183-14.186
		c0.413-0.648,1.425-1.574,2.604-2.656c4.211-3.848,11.25-10.295,11.412-21.102v-0.256c0-10.764-10.171-23.299-15.034-28.689
		c0.805-1.52,1.462-3.24,1.882-5.189c1.76-8.17-2.504-16.232-5.931-22.706c-0.825-1.561-1.611-3.046-2.244-4.402
		c2.69-1.301,4.974-2.58,6.642-3.506c0.711-0.406,1.322-0.748,1.755-0.968c1.468,0.692,4.278,1.492,7.193,1.789
		c2.796,0.285,6.463,0.186,8.071-1.93c1.056-1.388,1.48-3.085,1.219-4.909c-0.387-2.705-2.188-5.431-4.952-7.484
		c-4.603-3.401-11.371-0.907-14.304,0.887c-0.957,0.584-4.12,2.385-8.697,3.741c0-0.727,0.12-1.672,0.247-2.594
		c0.226-1.707,0.463-3.457,0.167-4.894c2.203-0.822,3.881-2.459,4.328-4.328c0.287-1.211,0.015-2.355-0.752-3.23
		c1.423-1.386,1.729-2.779,1.735-3.691c0.015-1.575-0.825-3.089-2.127-3.948c0.702-1.237,0.934-2.598,0.623-3.921
		c-0.126-0.563-0.349-1.091-0.649-1.575c2.913-2.884,5.648-7.023,7.554-11.489c1.896-4.401,2.824-8.711,2.583-11.962
		c4.307-0.862,9.232-1.989,13.899-3.376c2.727,3.335,2.28,6.632,2.89,6.987c0.964,0.552,2.678-1.112,3.586-3.973
		c0.587-1.814,0.863-3.871,0.749-5.505c3.271-1.317,6.079-2.798,7.983-4.443c1.771-1.527,2.707-3.142,2.789-4.799
		c0.139-3.001-3.209-4.62-7.203-5.833c8.41-10.369,19.391-7.028,19.475-7.405C271.332,66.976,259.748,62.155,250.27,74.327
		 M151.15,93.612c3.571,1.687,7.276,2.421,10.056,2.603c-4.06,3.199-6.819,2.162-7.193,3.013c-0.356,0.798,2.581,5.262,9.165,7.046
		c6.176,1.683,12.997,0.585,15.938-0.046c0.023,0.225,0.033,0.444,0.033,0.673c0,0.984-0.144,2.018-0.274,3.022
		c-0.019,0.131-0.033,0.257-0.048,0.393c-1.198,0.152-2.191,0.706-2.938,1.623c-1.15,1.396-1.762,3.705-1.838,6.993
		c-8.869,3.681-25.914,6.964-38.729,9.076c-14.137,2.336-27.038,3.909-32.053,4.42c0.252-0.778,0.51-1.483,0.741-2.045
		c4.29-0.104,6.305-1.967,7.235-3.542c0.906-1.507,1.396-4.362,0.636-6.732c5.28-0.816,11.14-2.479,16.253-4.634
		c4.422-1.862,10.348-4.964,13.504-9.155c1.709-2.269,2.392-4.585,2.053-6.891c-0.439-2.956-3.34-4.188-6.41-5.486
		c-2.365-1.001-4.811-2.042-6.379-3.906c0.904-2.745,0.012-5.19-0.695-6.514c3.006-4.259,4.303-8.881,3.787-13.431
		c5.422-1.351,5.916-5.916,5.561-6.025c-0.356-0.125-2.065,3.79-5.775,4.655c-0.26-1.294-0.654-2.55-1.18-3.739
		c5.202-5.761,9.185-12.104,11.068-17.59c4.321,2.896,8.008,6.078,10.776,9.349c2.698,3.185,4.483,6.403,5.319,9.555
		c0.902,3.447,0.674,6.853-0.689,10.123c-1.469,3.537-3.944,5.662-7.347,6.318c-5.219,1.006-8.967-1.454-9.647-0.885
		C141.734,82.148,141.774,89.184,151.15,93.612 M167.289,175.76c0.191,3.486,0.59,7.504,1.355,11.432
		c0.979,5.035,2.34,8.402,3.574,10.572c-0.109,3.898-1.112,7.041-2.982,10.398c-1.608,2.881-4.469,6.498-8.924,7.355
		c-5.223,1-9.699,0.16-14.09-2.66c-3.918-2.506-7.211-6.273-10.404-9.9c-3.806-4.338-7.395-8.445-11.957-10.58
		c-2.172-1.021-4.636-1.717-7.229-2.084c-1.258-4.207-3.369-9.201-5.076-13.244c-0.673-1.609-1.281-3.043-1.77-4.258
		c5.948-1.027,12.134-2.242,18.116-3.584c10.404-2.332,29.187-7.062,39.33-12.831c0.216,0.15,0.447,0.297,0.69,0.442
		C167.422,159.491,166.833,167.35,167.289,175.76"/>
	<path fill="#08110F" d="M257.212,80.512c-0.05,1.157-0.788,2.349-2.18,3.553c-4.708,4.052-16.587,7.915-33.436,10.879
		c-13.222,2.326-25.783,3.407-30.96,3.189c1.253-1.09,2.984-1.614,2.907-1.986c-0.052-0.253-3.457-0.168-4.905,2.089
		c-1.788,2.801-0.28,6.129,0.208,6.017c0.271-0.059-0.062-2.568,0.625-4.442c1.684,0.169,4.66,0.119,8.471-0.134
		c0.186,3.295,1.818,9.378,3.256,9.277c1.337-0.091,4.642-5.914,5.023-10.032c4.321-0.478,9.105-1.136,14.02-1.967
		c0,2.003-0.426,2.965-1.203,3.892c-1.323,1.598-3.842,2.55-7.497,2.832c-0.401,0.027-0.726,0.319-0.792,0.72
		c-0.213,1.141-1.027,3.08-1.734,4.804c-0.737,1.772-1.382,3.338-1.568,4.374c-2.34,1.795-6.988,3.07-11.998,3.266
		c-3.453,0.134-9.93-0.156-15.068-3.533c-0.01-0.157,0.105-2.205,0.23-3.144c0.238-1.74,0.338-5.336-0.283-5.747
		c-0.615-0.415-15.904,4.396-23.904-4.128c4.488-0.829,8.072-4.262,7.661-5.316c-0.329-0.883-5.909,0.253-12.19-2.951
		c-2.922-1.489-6.602-3.92-7.998-8.15c2.115,0.62,5.129,1.175,8.158,0.592c3.966-0.764,6.954-3.31,8.643-7.372
		c1.516-3.644,1.897-6.904,0.762-11.239c-0.902-3.415-2.814-6.862-5.678-10.242c-4.479-5.291-11.249-10.343-19.221-14.383
		c5.324-0.605,14.121,1.087,21.267,3.109l2.159,0.63c3.512,1.046,9.379,2.798,14.777,3.71c6.813,1.162,11.104,0.702,13.109-1.393
		c1.328-1.398,1.996-3.062,1.996-4.943c0-0.191-0.007-0.382-0.02-0.578c-0.234-3.335-2.547-7.21-6.443-10.933
		c6.098,2.025,11.963,6.289,17.234,10.131c5.439,3.958,10.574,7.699,15.104,8.331c0.193,0.029,0.395-0.01,0.561-0.109
		c1.645-0.97,5.209-1.485,7.275-0.129c1.04,0.683,1.537,1.771,1.491,3.25c-1.888,0.183-4.142,0.866-6.673,2.517
		c-3.812,2.487-5.961,6.323-5.739,10.258c0.163,2.778,1.552,5.214,3.784,6.704c-0.699,0.659-1.315,1.373-1.822,2.096
		c-1.572,2.261-1.983,4.437-1.074,5.804c1.039,1.553,2.918,2.61,5.281,2.982c2.535,0.392,5.319-0.077,6.618-1.115
		c3.001-2.404,3.434-6.119,2.887-8.573c-0.064-0.311-0.146-0.612-0.251-0.899c1.719-1.048,3.146-2.186,4.273-3.391
		c2.805,3.632,9.024,5.202,14.547,6.588C252.261,76.625,257.337,77.898,257.212,80.512"/>
	<path fill="#00A86E" d="M208.839,114.714c0.179-0.154,0.295-0.387,0.305-0.623c0.006-0.163,0.053-0.387,0.129-0.654
		c0.497,0.096,0.951,0.416,1.295,0.917c0.434,0.637,0.635,1.468,0.577,2.406c-0.009,0.034-0.017,0.062-0.019,0.088
		c-0.015,0.092-0.02,0.185-0.01,0.261c-0.074,0.626-0.248,1.29-0.53,1.956c-2.214,0.365-5.004,1.516-5.878,3.891
		c-0.444,1.211-0.299,2.438,0.038,3.364c-2.855,1.225-8.086,1.712-9.986,1.565c-0.365-0.863-0.881-1.628-1.521-2.229
		c-0.927-0.862-2.02-1.286-3.001-1.162c-1.226,0.15-1.983,0.708-2.481,1.428c-0.844-0.886-1.723-1.583-2.604-2.125
		c0.318-0.27,0.593-0.618,0.786-1.072c0.296-0.656,0.16-1.388-0.349-2.044c-0.907-1.157-2.884-1.914-4.313-1.656
		c-0.943,0.17-1.609,0.734-1.896,1.598c-0.193,0.601-0.152,1.21,0.086,1.765c-1.258,0.088-2.449,0.438-3.5,0.948
		c-0.458-5.237-0.03-8.694,1.277-10.284c0.383-0.464,0.85-0.766,1.411-0.921c-0.036,0.715-0.03,1.36,0.031,1.823
		c0.179,1.104,6.651,5.04,16.831,4.646C201.089,118.382,206.313,116.856,208.839,114.714"/>
	<path fill="#F4DE12" d="M215.882,121.125c0.375,1.604-0.438,3.285-2.211,4.601c-3.111,2.294-6.361,1.218-6.962,0.561
		c-0.21-0.229-0.821-1.446-0.351-2.718c1.002-2.729,7.288-3.413,7.188-4.238c-0.033-0.211-0.424-0.352-1.041-0.392
		c0.102-0.276,0.168-0.561,0.23-0.841C214.382,118.637,215.557,119.745,215.882,121.125"/>
	<path fill="#F4DE12" d="M216.402,135.106c-0.296,1.255-1.752,2.845-4.219,3.372c-2.281,0.493-4.731-0.073-5.464-1.257
		c-0.478-0.769-0.11-1.7,0.396-2.453c1.608,0.725,3.72,0.849,6.178-0.073c1.069-0.408,1.953-0.855,2.675-1.32
		C216.519,133.955,216.519,134.621,216.402,135.106"/>
	<path fill="#F4DE12" d="M217.343,128.581c-0.02,1.755-1.679,3.341-4.672,4.469c-3.441,1.296-5.919,0.056-6.865-1.76
		c-0.521-1.012-0.596-2.344,0.282-3.28c0.771,0.474,1.872,0.793,3.019,0.86c1.379,0.081,3.473-0.152,5.605-1.735
		c0.451-0.333,0.85-0.688,1.203-1.062C216.681,126.539,217.347,127.463,217.343,128.581"/>
	<path fill="#08110F" d="M215.787,117.821c-0.776-0.674-1.748-1.189-2.873-1.5c-0.028-1.111-0.319-2.12-0.899-2.96
		c-0.549-0.792-1.308-1.349-2.153-1.586c0.243-0.615,0.516-1.27,0.773-1.899c0.664-1.595,1.339-3.233,1.686-4.508
		c3.801-0.387,6.513-1.525,8.07-3.396c1.053-1.255,1.672-2.823,1.6-5.314c1.04-0.181,2.167-0.387,3.349-0.618
		C225.705,102.338,221.356,112.253,215.787,117.821"/>
	<path fill="#F4DE12" d="M61.035,124.608c1.852-1.545,1.651-3.658,1.537-3.697c-0.881-0.302-0.8,2.947-5.866,3.474
		c-3.684,0.384-6.969-1.502-9.136-5.137c-1.004-1.688-1.404-3.581-1.168-5.485c0.395-3.023,2.564-6.141,6.111-6.542
		c3.416-0.391,6.101,1.532,6.439,0.953c0.479-0.819-3.715-3.056-6.654-2.71c-4.529,0.544-7.217,4.813-7.635,8.083
		c-0.291,2.288,0.188,4.575,1.396,6.597c2.5,4.2,6.559,6.435,10.837,5.985c0.957-0.098,1.765-0.293,2.442-0.55
		c0.081,1.665,0.134,4.585,0,7.646c-1.431,1.021-4.752,2.972-7.936,4.524c-5.615,2.75-7.342,2.643-7.735,2.543
		c-0.234-0.062-0.898-0.421-2.082-2.531c-0.867-1.535-1.72-3.479-2.546-5.357c-1.656-3.758-2.577-5.744-3.676-6.253
		c-0.889-0.411-2.76-0.314-6.27-0.093c-2.301,0.144-4.906,0.311-7.107,0.224c-3.051-0.109-4.014-0.668-4.314-0.989
		c-1.007-1.062,0.082-4.936,0.945-8.049c1.061-3.786,1.969-7.048,0.805-8.757c-0.805-1.17-3.148-2.774-6.896-5.296
		c-2.476-1.675-5.301-3.571-7.416-5.307c-2.919-2.386-3.352-3.528-3.352-3.999c0-1.875,4.455-6.293,7.711-9.517
		c3.858-3.814,6.236-6.238,6.469-7.869c0.23-1.611-1.729-4.32-5.203-8.967c-1.953-2.618-3.982-5.333-5.414-7.773
		c-1.867-3.181-1.939-4.598-1.666-5.24c1.005-2.414,8.369-4.959,13.744-6.816c5.094-1.756,8.021-2.816,8.94-4.01
		c1.008-1.319,0.823-4.732,0.413-10.65c-0.37-5.346-0.881-12.663,0.756-14.519c0.402-0.463,1.766-1.116,6.38-0.396
		c3.323,0.521,7.311,1.571,10.812,2.507c4.925,1.312,7.78,2.039,9.171,1.794c1.909-0.33,4.507-4.028,8.59-10.04
		c1.795-2.641,3.652-5.376,5.29-7.425c2.292-2.859,3.223-3.194,3.517-3.203c1.684-0.067,7.37,5.981,10.504,9.341
		c4.52,4.863,7.156,7.624,8.812,7.855c1.542,0.224,4.748-1.167,10.28-3.648c3.887-1.744,11.899-5.503,13.985-4.698
		c1.943,0.742,2.256,8.234,2.607,12.238c0.562,6.477,0.988,10.509,2.645,11.662c1.342,0.943,4.374,1.194,9.211,1.519
		c3.004,0.196,6.107,0.41,8.662,0.891c3.299,0.628,4.34,1.479,4.637,2.089c0.08,0.168,0.15,0.351,0.209,0.545
		c-5.774-0.503-9.684,0.493-9.788,1.315c-0.081,0.688,3.808,2.179,9.11,5.535c-1.688,5.21-5.438,11.298-10.408,16.908
		c-0.987-1.719-2.269-3.257-3.783-4.531c3.518-4.34,0.738-7.378,0.416-7.177c-0.324,0.205,1.191,3.145-1.532,6.308
		c-2.53-1.771-5.665-2.772-8.999-2.933c1.445-5.399-2.344-6.469-2.533-6.156c-0.2,0.331,2.383,2.621,1.11,6.144
		c-1.668,0.04-3.373,0.285-5.063,0.751c-1.504,0.423-2.937,0.99-4.283,1.697c-2.213-5.316-5.576-4.729-5.605-4.347
		c-0.031,0.374,3.161,1.077,4.357,5.068c-3.173,1.975-5.721,4.758-7.322,8.105c-1.734-0.996-3.615-1.75-5.605-2.233
		c-0.182-0.037-0.358-0.08-0.543-0.116c2.824-4.875-0.039-8.626-0.398-8.478c-0.357,0.152,1.436,5.243-1.164,8.193
		c-4.184-0.587-8.433,0.005-12.179,1.733c-0.136,0.069-0.274,0.138-0.411,0.203c-1.262-5.293-5.523-6.418-5.68-6.071
		c-0.157,0.354,3.66,2.544,4.365,6.749c-2.393,1.328-4.488,3.001-6.251,4.979c-1.165,1.318-2.153,2.73-2.94,4.229
		c-4.482-4.323-8.55-1.659-8.424-1.304c0.129,0.365,4.632-0.897,7.76,2.646c-0.317,0.731-0.602,1.478-0.843,2.239
		c-0.903,2.935-1.11,5.902-0.652,8.731c-5.46-1.344-7.233,2.647-6.952,2.91c0.277,0.268,3.161-2.917,7.301-1.297
		c0.42,1.584,1.061,3.111,1.905,4.543c3.083,5.186,7.702,8.553,13.353,9.746c4.718,0.998,9.934,0.387,14.327-1.677
		c7.521-3.545,10.476-9.229,11.632-13.374c0.182-0.645,0.326-1.284,0.439-1.919c1.79,0.048,3.973-0.78,6.009-1.767
		c2.335-1.144,5.06-2.344,7.957-2.922c3.335-0.669,5.548-0.105,6.78,1.719c0.486,0.729,1.991,3.328,0.803,6.202
		c-2.199,5.3-12.964,7.071-12.807,7.876c0.215,1.087,10.302-0.351,13.823-6.028c1.81,1.815,4.278,2.865,6.489,3.807
		c2.724,1.147,5.068,2.145,5.367,4.13c0.268,1.824-0.311,3.698-1.719,5.572c-4.888,6.481-18.952,11.836-29.729,13.27
		c-7.092,0.944-24.762,2.492-37.669-3.038c1.263-1.379,3.166-1.732,3.089-2.147c-0.114-0.666-3.27-0.462-4.791,1.998
		c-1.986,3.197-0.141,6.047,0.299,5.923c0.434-0.134-0.154-2.316,0.506-4.25c12.954,5.646,30.494,4.308,38.15,3.338
		c0.48,1.304,0.76,3.715-0.357,5.592c-1.072,1.821-3.195,2.729-6.301,2.688c-0.352,0-0.668,0.206-0.807,0.523
		c-0.93,2.033-2.727,7.539-2.806,11.294c-0.132,0.067-0.255,0.127-0.377,0.191c-1.652,0.876-2.638,2.182-3.085,2.903
		c-1.081-0.532-2.324-0.783-3.695-0.73c-3.548,0.127-5.902,2.821-6.799,5.453c-0.889-1.591-2.082-2.69-3.574-3.278
		c-2.004-0.776-4.432-0.53-6.664,0.686c-1.324,0.729-2.358,1.995-2.907,3.557c-0.774-2.874-3.409-4.989-6.525-4.989
		c-1.036,0-2.012,0.236-2.897,0.654c-0.629-1.483-1.793-2.67-3.223-3.372C61.43,136.232,61.235,127.149,61.035,124.608"/>
	<path fill="#FFFFFF" d="M105.197,72.502c-1.451-2.18-3.316-4.032-5.47-5.49c2.256-4.813,6.61-8.407,12.019-9.899
		c5.186-1.437,10.54-0.671,14.332,2.034c3.377,2.414,5.705,6.202,6.376,10.396c0.69,4.252-0.39,8.613-3.101,12.674
		c-1.686-2.045-4.446-2.704-8.201-1.954c-3.149,0.63-6.212,2.078-8.35,3.051c-1.852,0.836-3.638,1.573-5.016,1.604
		C108.302,79.841,107.005,75.219,105.197,72.502"/>
	<path fill="#FFFFFF" d="M67.566,79.443c0.826-2.667,2.23-5.121,4.145-7.284c2.039-2.287,4.559-4.143,7.512-5.501
		c4.082-1.888,8.818-2.325,13.33-1.241c4.751,1.142,8.811,3.944,11.434,7.893c1.12,1.66,1.915,3.97,2.266,6.489
		c0.39,2.805,0.201,5.715-0.549,8.408c-1.074,3.854-3.829,9.142-10.854,12.445c-4.107,1.935-8.998,2.512-13.407,1.583
		c-3.659-0.775-8.786-2.974-12.41-9.076C66.609,89.085,66.091,84.215,67.566,79.443"/>
	<path fill="#FFFFFF" d="M244.803,97.477c-0.351-1.688-1.091-4.067-2.275-5.631c1.464-0.459,2.896-0.941,4.259-1.452
		C246.902,93.354,245.834,96.261,244.803,97.477"/>
	<path fill="#010101" d="M55.251,113.1c-2.641-1.54-5.82-0.04-5.619,0.517c0.169,0.475,2.322-0.304,4.277,0.445
		c-0.477,0.325-0.906,0.786-1.219,1.333c-1.48,2.603,0.775,6.265,1.394,5.897c0.245-0.144-1.081-3.525-0.142-5.177
		c0.396-0.694,0.994-1.084,1.428-1.137c1.839,1.688,2.23,4.432,2.655,4.355C58.763,119.214,58.356,114.917,55.251,113.1"/>
	<path fill="#010101" d="M78.611,91.125c1.897,0,3.435-1.603,3.435-3.586c0-1.984-1.537-3.596-3.435-3.596
		c-1.889,0-3.422,1.611-3.422,3.596C75.189,89.522,76.722,91.125,78.611,91.125"/>
	<path fill="#010101" d="M119.154,77.062c1.668,0,3.02-1.355,3.02-3.031s-1.352-3.039-3.02-3.039c-1.667,0-3.012,1.363-3.012,3.039
		S117.487,77.062,119.154,77.062"/>
	<path fill="#010101" d="M191.224,93.082c-17.148-1.053-23.767,10.273-23.449,10.52c0.326,0.238,7.91-10.126,23.344-9.077
		C191.896,94.577,191.992,93.129,191.224,93.082"/>
	<path fill="#010101" d="M196.697,90.007c-19.779-4.484-29.762,4.426-29.559,4.771c0.195,0.346,11.748-7.66,29.234-3.364
		C197.117,91.598,197.449,90.174,196.697,90.007"/>
	<path fill="#010101" d="M198.893,125.618c1.81,0.162,3.745-0.697,3.946-2.662c0.24-2.275-3.12-3.241-5.174-2.275
		c-0.967,0.444-1.542,1.271-1.619,2.297C195.937,124.368,197.109,125.459,198.893,125.618"/>
	<path fill="#FFFFFF" d="M197.489,123.091c0.038-0.511,0.296-0.87,0.791-1.104c1.253-0.59,3.196,0.103,3.132,0.82
		c-0.122,1.154-1.492,1.449-2.385,1.366C198.47,124.127,197.425,123.833,197.489,123.091"/>
	<path fill="#E5E76B" d="M233.042,57.338c0.616,1.04,1.533,3.18,0.83,5.923c-0.725,2.786-2.873,5.307-6.416,7.497
		c-0.627-1.011-1.486-1.708-2.45-1.939c-2.603-0.633-5.259,0.364-7.407,1.983c-2.09-1.218-3.348-3.312-3.498-5.812
		c-0.191-3.407,1.709-6.757,5.085-8.957c3.927-2.562,7.064-2.562,9.001-2.109C230.248,54.406,232.072,55.683,233.042,57.338"/>
	<path fill="#D289BB" d="M224.667,70.225L224.667,70.225c1.012,0.244,1.9,1.447,2.264,3.067c0.443,2.044,0.096,5.141-2.393,7.122
		c-0.852,0.692-3.145,1.18-5.493,0.819c-1.96-0.304-3.488-1.142-4.293-2.354c-0.556-0.825-0.142-2.471,1.058-4.176
		C217.777,71.881,221.455,69.446,224.667,70.225"/>
	<path fill="#08110F" d="M235.888,32.547c2.335-0.779,5.012-0.259,6.637,1.309c1.175,1.121,1.574,2.594,1.125,4.153
		c-1.109,3.887-3.34,4.574-5.693,5.307c-1.09,0.337-2.207,0.686-3.157,1.358c-1.329,0.934-4.297,5.4-5.169,8.18
		c-0.355-0.133-0.73-0.249-1.117-0.339c-0.496-0.114-1.062-0.205-1.688-0.246c0.055-2.571-1.172-3.955-2.277-4.682
		c-0.186-0.127-0.387-0.238-0.588-0.339C225.135,43.739,229.39,34.712,235.888,32.547"/>
	<path fill="#F4DE12" d="M196.029,142.913c0.109,1.471-0.655,3.013-2.169,4.371c-0.749-0.392-1.439-0.843-2.067-1.363
		c-0.608-0.511-1.16-1.087-1.661-1.733c1.874-0.484,3.438-1.318,4.648-2.487c0.187-0.183,0.355-0.372,0.527-0.569
		C195.658,141.512,195.966,142.134,196.029,142.913"/>
	<path fill="#F4DE12" d="M195.417,136.929c-0.244,1.398-1.357,4.675-6.303,5.691c-0.354-0.627-0.659-1.303-0.927-2.024
		c-0.146-0.406-0.277-0.82-0.396-1.246c1.299,0.024,2.705-0.454,4.001-1.39c1.526-1.104,2.672-2.679,3.232-4.361
		C195.439,134.365,195.663,135.576,195.417,136.929"/>
	<path fill="#F4DE12" d="M188.474,129.045c0.37-1.685,0.65-2.645,1.977-2.809c0.459-0.061,1.056,0.202,1.586,0.703
		c1.112,1.041,1.714,2.786,1.608,4.675c-0.104,1.829-1.212,3.708-2.882,4.921c-1.148,0.833-2.375,1.201-3.387,1.019
		c-0.35-1.886-0.473-3.773-0.557-5.352C187.916,131.548,188.208,130.222,188.474,129.045"/>
	<path fill="#FFFFFF" d="M180.707,121.382c0-0.1,0.014-0.21,0.049-0.315c0.074-0.217,0.229-0.53,0.771-0.625
		c0.922-0.163,2.34,0.392,2.927,1.132c0.175,0.225,0.234,0.421,0.172,0.565c-0.224,0.518-0.635,0.771-1.065,0.867
		c-0.766-0.302-1.513-0.487-2.262-0.583C180.955,122.144,180.707,121.784,180.707,121.382"/>
	<path fill="#F4DE12" d="M164.294,134.194c0,0.032,0.005,0.062,0.005,0.095c-10.445,4.367-23.636,7.929-39.249,10.574
		c-5.562,0.942-10.854,1.683-15.623,2.258c0.329-3.015-1.485-5.545-3.562-6.51c-1.633-0.755-3.064-0.864-4.262-0.688
		c0.115-1.709,0.566-3.785,1.11-5.672c4.414-0.42,17.982-2.048,32.896-4.513c12.594-2.076,29.26-5.28,38.442-8.914
		c0.026,0.735,0.074,1.519,0.136,2.338c-1.843-0.075-3.702,0.56-5.396,1.869C166.009,127.193,164.294,130.722,164.294,134.194"/>
	<path fill="#FFFFFF" d="M164.318,134.928v-0.058V134.928z"/>
	<path fill="#FFFFFF" d="M74.38,154.3c-0.611-1.061-0.793-2.531-0.476-3.944c0.356-1.54,1.21-2.751,2.419-3.407
		c1.828-1.002,3.867-1.222,5.449-0.608c1.4,0.55,2.496,1.719,3.252,3.491c-1.197,0.248-2.299,0.539-3.32,0.854
		C78.297,151.743,75.951,153.073,74.38,154.3"/>
	<path fill="#FFFFFF" d="M98.622,148.286c-1.919,0.185-3.638,0.342-5.146,0.48c-1.793,0.163-3.206,0.292-4.249,0.406
		c-0.757,0.081-1.491,0.181-2.203,0.29c0.2-0.893,0.649-1.983,1.451-2.974c0.773-0.977,2.151-2.154,4.245-2.229
		C96.592,144.118,98.073,146.732,98.622,148.286"/>
	<path fill="#FFFFFF" d="M100.091,148.145c-0.27-0.896-0.82-2.152-1.875-3.251c-0.201-0.206-0.414-0.395-0.636-0.571
		c1.074-1.757,3.817-4.182,7.671-2.395c1.679,0.771,3.13,2.893,2.686,5.367C105.106,147.629,102.474,147.909,100.091,148.145"/>
	<path fill="#FFFFFF" d="M66.201,145.689c2.937,0,5.318,2.39,5.318,5.316c0,2.937-2.382,5.329-5.318,5.329s-5.321-2.393-5.321-5.329
		C60.879,148.079,63.264,145.689,66.201,145.689"/>
	<path fill="#FFFFFF" d="M51.742,147.446c0-2.854,2.383-5.163,5.324-5.163c2.24,0,4.233,1.372,4.99,3.385
		c-1.595,1.241-2.617,3.168-2.617,5.341c0,0.351,0.024,0.688,0.072,1.021c-0.757,0.377-1.596,0.578-2.445,0.578
		C54.125,152.608,51.742,150.292,51.742,147.446"/>
	<path fill="#F4DE12" d="M56.96,154.052c0.029,0,0.065,0.005,0.105,0.005c0.977,0,1.935-0.209,2.832-0.612
		c0.975,2.531,3.43,4.327,6.3,4.327c2.872,0,5.321-1.796,6.306-4.317c0.162,0.659,0.425,1.275,0.777,1.815
		c-1.461,1.439-1.826,2.582-1.65,2.732c0.164,0.146,3.671-3.488,10.53-5.626c2.028-0.631,4.421-1.151,7.257-1.459
		c1.027-0.113,2.434-0.239,4.215-0.398c6.938-0.636,18.55-1.693,31.712-3.928c16.021-2.714,29.544-6.385,40.196-10.918
		c0.344-0.142,0.559-0.489,0.53-0.866c-0.22-3.083,1.308-6.453,3.804-8.388c1.191-0.926,2.484-1.441,3.767-1.497
		c-1.955,1.799-3.173,4.43-3.644,7.854c-0.602,4.405,0.223,9.008,1.006,12.098c0.885,3.447,2.086,7.101,4.86,10.502
		c0.497,0.616,1.044,1.209,1.618,1.774c-3.476-0.206-7.298-1.623-9.177-3.125c-0.278-0.227-0.671-0.256-0.985-0.071
		c-7.275,4.279-21.24,8.866-39.343,12.92c-6.513,1.461-13.281,2.775-19.703,3.85c-10.159,1.709-23.403,3.318-23.375,3.764
		c0.048,0.797,4.961,0.51,11.192-0.219c-5.879,2.449-13.816,3.576-22.459,3.115c-9.26-0.5-17.428-2.75-21-5.766
		C52.652,169.104,55.286,158.347,56.96,154.052"/>
	<path fill="#EE3238" d="M79.522,324.68c-1.136,1.238-5.538,2.213-14.499,1.252c-6.496-0.693-13.98-2.289-20.014-4.26
		c-6.486-2.125-10.905-4.531-12.123-6.617c-0.086-0.152-0.124-0.391-0.124-0.693c0-1.215,0.712-3.477,2.13-4.771
		c4.234,3.846,11.6,4.715,14.195,4.715c0.363,0,0.688-0.225,0.824-0.568c1.219-3.275,3.937-6.627,7.262-8.973
		c3.417-2.393,6.869-3.33,9.488-2.559c1.301,0.381,2.525,0.949,3.693,1.713c-4.921,0.693-11.928,4.178-15.504,11.137
		c-0.162,0.318-0.067,0.715,0.234,0.922c2.079,1.422,7.309,2.152,9.458,2.406c0.315,0.033,0.616-0.131,0.747-0.424
		c1.277-2.846,5.202-7.297,11.847-6.008c0.826,1.631,1.507,3.391,2.015,5.168C80.308,321.291,80.052,324.096,79.522,324.68"/>
	<path fill="#F4DE12" d="M74.81,308.174c0.506,0.672,0.997,1.41,1.451,2.182c-6.482-0.734-10.49,3.473-12.052,6.527
		c-2.831-0.35-6.062-0.973-7.735-1.781c2.215-3.949,5.432-6.293,7.79-7.578c3.106-1.686,6.031-2.283,7.828-2.285
		C73.045,306.068,73.955,307.055,74.81,308.174"/>
	<path fill="#F4DE12" d="M70.808,280.943c-0.707,5.633-2.039,13.465-4.424,19.4c-3.006-0.564-6.678,0.5-10.216,2.986
		c-3.404,2.404-6.231,5.805-7.673,9.205c-2.684-0.121-8.889-1.045-12.41-4.242c4.759-7.463,6.745-18.6,7.573-26.742
		c0.482-4.82,0.645-9.199,0.645-12.607c0-3.137-0.136-5.457-0.276-6.531c2.563-1.439,5.161-2.975,6.713-3.945
		c0.346,1.779,1.026,4.484,1.861,7.029c1.915,5.895,3.103,6.664,4.092,6.605c0.402-0.02,1.605-0.082,7.568-5.498
		c2.128-1.924,4.613-4.344,6.119-6.023c0.392,1.053,0.943,2.453,1.583,3.953C71.978,268.074,71.608,274.574,70.808,280.943"/>
	<path fill="#F4DE12" d="M90.695,281.619c0.173-2.965,0.254-5.775,0.254-8.303c0-4.732-0.275-8.436-0.654-10.162
		c0.21-0.281,0.41-0.557,0.592-0.809c0.869,1.709,2.359,4.303,3.938,6.598c3.07,4.475,5.465,6.477,7.319,6.143
		c3.106-0.561,6.645-7.359,10.009-14.689c0.928,1.045,2.846,3.332,5.07,5.562c-0.088,5.27-1.239,23.619-3.206,30.588
		c-2.321,0.123-5.1,1.217-7.669,3.057c-2.347,1.688-5.587,4.748-7.846,9.805c-4.932,0.037-10.221-2.021-12.254-3.402
		C89.134,298.506,90.265,288.662,90.695,281.619"/>
	<path fill="#EE3238" d="M128.836,319.611c-1.069,1.314-5.276,2.02-11.237,1.869c-12.718-0.314-30.714-4.311-34.006-8.789
		c-0.49-0.668,0.112-3.209,1.723-5.193c2.591,1.727,8.537,3.861,13.797,3.658c0.344-0.016,0.646-0.23,0.777-0.543
		c3.641-8.641,11.096-12.691,15.078-12.289c1.395,0.143,2.917,0.723,4.447,1.684c-5.328,1.039-11.803,4.58-14.491,11.754
		c-0.071,0.186-0.058,0.387,0.028,0.566c0.086,0.182,0.239,0.311,0.428,0.373c2.041,0.648,7.033,2.072,9.459,1.309
		c0.215-0.068,0.384-0.232,0.461-0.445c1.322-3.537,6.398-7.062,11.059-6.41c0.864,1.32,1.605,2.705,2.172,4.061
		C130.069,314.904,130.164,317.959,128.836,319.611"/>
	<path fill="#F4DE12" d="M125.298,305.627c-4.834-0.041-9.611,3.396-11.197,7.078c-1.646,0.314-4.889-0.357-7.539-1.152
		c2.9-6.752,9.564-9.797,14.535-10.346c0.549,0.447,1.088,0.93,1.621,1.463C123.632,303.562,124.501,304.564,125.298,305.627"/>
	<path fill="#EE3238" d="M146.748,261.859c-0.812-0.008-2.68-0.395-5.596-1.777c-6.271-2.971-9.551-6.871-10.243-6.623
		c-0.319,0.121-1.084,5.781-1.818,9.094c-1.239,5.629-2.607,6.893-3.142,7.178c-0.287,0.152-1.545,0.393-5.372-3.051
		c-2.485-2.229-8.155-8.865-8.821-8.715c-0.672,0.15-3.579,6.896-5.305,9.9c-2.705,4.693-4.133,5.402-4.621,5.496
		c-0.758,0.131-2.669-1.199-5.557-5.412c-2.192-3.184-4.498-8.205-5.138-8.232c-0.644-0.029-4.284,5.131-6.697,7.908
		c-4.09,4.725-5.417,5.246-5.667,5.309c-0.17-0.066-1.342-0.684-3.992-6.375c-1.559-3.35-3.447-8.506-3.953-8.594
		c-0.495-0.088-4.604,4.488-7.614,7.223c-4.019,3.646-5.952,4.92-6.526,5.135c-0.393-0.34-1.324-1.889-2.584-5.887
		c-0.984-3.131-1.836-8.109-2.373-8.271c-0.539-0.164-5.472,3.006-9.363,5.166c-5.314,2.934-7.668,3.9-8.337,4.043
		c-1.977-4.785-0.513-13.105-1.191-13.379c-0.671-0.273-5.923,4.674-15.124,5.455c-3.52,0.299-5.665-0.453-6.395-0.857
		c3.697-3.85,9.622-8.639,23.898-36.191c7.652-14.756,13.053-44.133,13.1-44.422l0.012-0.043c0.326-1.814,0.898-4.969,2.715-6.002
		c-0.136,1.002-0.2,1.766-0.136,2.215c0.03,0.201,0.126,0.387,0.272,0.531c3.705,3.391,12.486,5.928,22.36,6.457
		c10.662,0.57,21.005-1.303,27.445-5.516c2.512-0.346,5.066-0.742,7.499-1.148c0.511,1.309,1.177,2.865,1.922,4.637
		c1.595,3.777,3.548,8.398,4.799,12.371c-1.527-0.113-3.09-0.104-4.655,0.01c-4.728,0.377-9.091,1.852-11.971,4.039
		c-3.015,2.295-4.321,5.201-3.772,8.385c0.55,3.258,2.842,5.291,6.996,6.227c3.426,0.783,7.668,0.725,11.765,0.668
		c3.171-0.039,6.21-0.076,8.587,0.273c5.427,15.408,13.256,32.523,22.096,48.154C145.37,259.221,146.355,260.988,146.748,261.859"/>
	<path fill="#08110F" d="M229.748,203.938c4.219,6.553,6.332,12.27,6.263,16.99c-0.155,10.051-6.845,16.172-10.837,19.836
		c-1.332,1.221-2.385,2.178-2.915,3.014c-1.282,2.029,2.189,12.551-3.933,13.387c-2.064,0.281-3.852-0.467-5.309-2.211
		c-2.76-3.295-3.634-9.521-2.029-14.473c0.391-1.217,2.846-3.975,5.219-6.641c3.335-3.773,6.813-7.676,7.439-10.199
		c0.491-1.965-0.393-4.561-2.621-7.713c-1.695-2.387-4.062-4.943-6.527-7.029c-0.482-1.375-1.027-2.723-1.615-4.018
		c-0.452-1-0.964-1.986-1.504-2.938c1.928-0.756,7.003-3.15,10.419-8.346C224.051,196.133,227.047,199.76,229.748,203.938"/>
	<path fill="#08110F" d="M217.132,164.941c3.288,6.217,7.385,13.961,5.762,21.516c-2.059,9.604-10.459,13.23-12.43,13.957
		c-2.672-4.303-5.67-7.514-6.057-7.182c-0.425,0.359,4.494,7.027,7.015,12.656c2.099,4.709,3.603,10.062,3.653,15.477
		c0.082,7.824-10.116,17.268-14.466,21.295c-1.187,1.102-1.77,1.643-2.04,1.998c-1.746,2.336,2.772,13.291-3.776,15.115
		c-2.581,0.721-5.78-3.133-7.169-7.43c-0.936-2.855-1.232-5.861-0.84-8.486c0.27-1.863,2.167-4.217,4.354-6.943
		c2.373-2.941,5.05-6.266,6.671-10.145c1.719-4.123,0.673-9.094-0.099-11.693c-2.188-7.312-6.457-9.236-6.582-9.09
		c-0.152,0.189,0.416,0.906,1.247,2.129c-7.12-0.086-13.773-5.387-14.048-5.176c-0.482,0.383,0.456,1.787,2.525,3.236
		c-2.595,10.424-11.488,17.939-22.699,19.176c-8.699,0.963-15.147-4.402-21.396-9.588c-4.001-3.32-7.773-6.457-12.004-7.881
		c-2.786-0.936-6.888-0.885-11.212-0.826c-7.89,0.105-16.047,0.211-17.012-5.432c-0.535-3.17,1.396-5.383,3.112-6.691
		c2.624-1.992,6.647-3.342,11.05-3.688c4.634-0.371,9.21,0.377,12.887,2.1c4.227,1.98,7.707,5.945,11.389,10.148
		c3.271,3.727,6.648,7.586,10.766,10.221c4.73,3.035,9.756,3.988,15.376,2.906c5.121-0.982,8.329-5.016,10.122-8.223
		c1.765-3.166,2.741-6.541,3.027-8.99c0.803,0.906,1.388,1.191,1.52,1.086c0.515-0.406-3.111-4.945-4.929-14.143
		c-0.764-3.867-1.155-7.85-1.339-11.303c-0.441-8.119,0.105-15.279,0.52-17.999c2.715,1.223,6.32,2.095,9.462,1.829
		c2.776,2.139,6.261,3.857,10.538,5.199c5.233,1.656,11.612,1.218,18.928-1.268c2.086-0.717,4.062-1.528,5.89-2.354
		C215.495,161.856,216.292,163.358,217.132,164.941"/>
	<path fill="#08110F" d="M222.968,145.094c3.012-1.839,8.78-3.614,12.352-0.972c2.35,1.748,3.944,4.109,4.26,6.314
		c0.195,1.371-0.096,2.574-0.879,3.605c-0.859,1.127-3.229,1.573-6.492,1.242c-2.879-0.297-5.796-1.138-6.935-1.789
		c-0.253-0.146-0.544-0.15-0.798-0.036c-0.482,0.218-1.227,0.639-2.258,1.213c-2.999,1.687-8.034,4.493-13.828,6.477
		c-6.959,2.377-12.959,2.791-17.836,1.264c-6.053-1.908-10.414-4.575-13.334-8.146c-2.564-3.134-3.682-6.576-4.515-9.826
		c-0.747-2.939-1.526-7.306-0.967-11.427c0.516-3.81,2.058-6.46,4.593-7.887c1.35-0.759,6.076-2.796,10.658,2.564
		c-0.096,0.333-0.163,0.666-0.232,0.968c-0.05,0.214-0.098,0.426-0.141,0.617c-0.081-0.617-0.227-0.975-0.458-0.989
		c-0.864-0.048-1.447,7.936,0.387,12.916c2.034,5.529,6.179,8.646,12.333,9.287C211.307,151.769,221.128,146.221,222.968,145.094"/>
	<path fill="#08110F" d="M199.06,148.74c-1.236-0.131-2.378-0.365-3.438-0.724c2.039-2.122,2.239-4.156,2.152-5.242
		c-0.098-1.262-0.645-2.402-1.465-3.106c0.4-0.762,0.686-1.573,0.84-2.43c0.438-2.455-0.289-4.85-1.748-5.785
		c0.016-0.616-0.023-1.218-0.129-1.793c2.082,0.022,5.735-0.332,8.572-1.163c-0.34,1.122-0.219,2.399,0.405,3.603
		c0.329,0.641,0.802,1.237,1.382,1.735c-1.373,2.066-0.871,3.567-0.41,4.308c1.086,1.758,3.918,2.624,6.848,2.145
		c0.202,1.155-0.01,2.767-0.201,4.221c-0.155,1.203-0.313,2.358-0.246,3.297C208.033,148.694,203.74,149.224,199.06,148.74"/>
	<path fill="#FFFFFF" d="M204.747,99.083c-0.337,2.696-2.019,5.967-3.461,7.912c-1.082-1.972-1.804-5.348-1.908-7.42
		C201.044,99.444,202.841,99.285,204.747,99.083"/>
	<path fill="#010101" d="M203.629,64.438c-2.595-0.817-7.038-1.061-13.526,2.431c-4.162,2.239-7.067,6.083-7.773,10.274
		c-0.406,2.404-0.006,4.544,1.076,5.726c2.404,2.624,8.033,6.126,18.701,0.139c2.692-1.511,4.941-3.887,6.171-6.514
		c1.332-2.856,1.39-5.776,0.16-8.227C207.574,66.526,205.819,65.135,203.629,64.438"/>
	<path fill="#E5E76B" d="M201.4,81.747c-3.982,2.239-7.549,3.28-10.609,3.088c-2.545-0.15-4.67-1.145-6.322-2.944
		c-0.75-0.828-1.039-2.593-0.714-4.507c0.638-3.751,3.269-7.211,7.031-9.238c6.044-3.258,10.082-3.058,12.405-2.329
		c2.582,0.826,3.629,2.438,3.963,3.101C209.469,73.546,205.974,79.182,201.4,81.747"/>
	<path fill="#010101" d="M189.291,71.777c-0.301,0.382,2.395,3.261,3.462,5.524c1.062,2.263,0.845,5.907,1.327,5.949
		c0.485,0.046,1.667-3.677,0.215-6.811C192.843,73.299,189.58,71.39,189.291,71.777"/>
	<path fill="#010101" d="M221.144,59.25c-0.315,0.366,1.441,1.836,2.479,4.606c1.033,2.765,0.701,4.044,1.169,4.142
		c0.482,0.096,1.532-2.356,0.21-5.345C223.689,59.666,221.463,58.889,221.144,59.25"/>
	<path fill="#5CC19D" d="M211.117,117.114c-0.01-0.081-0.005-0.171,0.01-0.261c0.004-0.031,0.01-0.059,0.021-0.095
		c0.055-0.929-0.146-1.765-0.582-2.404c-0.34-0.496-0.798-0.821-1.293-0.917c-0.076,0.268-0.123,0.489-0.129,0.654
		c-0.012,0.236-0.123,0.469-0.305,0.625c-0.383,0.315-0.81,0.617-1.299,0.909c0.539,0.666,1.088,2.13,0.861,4.033
		c0.735-0.292,1.488-0.479,2.182-0.597C210.866,118.399,211.044,117.74,211.117,117.114"/>
	<path fill="#028746" d="M178.686,113.953c-0.062-0.46-0.067-1.108-0.031-1.818c-0.562,0.15-1.028,0.45-1.411,0.916
		c-1.308,1.588-1.732,5.047-1.277,10.284c1.051-0.511,2.242-0.858,3.5-0.951c-0.238-0.554-0.279-1.159-0.083-1.765
		c0.274-0.841,0.912-1.399,1.821-1.58c0.062-0.722,0.337-1.97,0.709-2.786C179.899,115.335,178.757,114.407,178.686,113.953"/>
	<path fill="#E9E74A" d="M210.205,127.088c1.067-0.103,2.277-0.491,3.467-1.366c1.778-1.317,2.588-2.99,2.209-4.598
		c-0.323-1.38-1.498-2.487-3.145-3.027c-0.062,0.282-0.132,0.562-0.23,0.848c0.614,0.031,1.01,0.174,1.039,0.39
		c0.051,0.395-1.355,0.749-2.946,1.32C211.742,121.754,213.466,124.751,210.205,127.088"/>
	<path fill="#E9E74A" d="M217.343,128.581c0.004-1.117-0.662-2.042-1.428-2.509c-0.354,0.374-0.752,0.729-1.203,1.062
		c-0.659,0.484-1.309,0.842-1.943,1.104c0.742,0.828,1.91,3.242-1.411,5.19c0.417-0.081,0.853-0.21,1.311-0.38
		C215.665,131.921,217.324,130.335,217.343,128.581"/>
	<path fill="#E9E74A" d="M212.186,138.481c2.464-0.53,3.92-2.12,4.216-3.375c0.113-0.483,0.113-1.156-0.434-1.729
		c-0.686,0.434-1.52,0.861-2.521,1.253c0.458,1.153,0.846,3.581-3.601,3.999C210.591,138.692,211.401,138.651,212.186,138.481"/>
	<path fill="#E9E74A" d="M190.761,136.536c1.674-1.208,2.781-3.09,2.887-4.916c0.105-1.894-0.499-3.637-1.613-4.68
		c-0.525-0.498-1.125-0.764-1.584-0.703c-1.084,0.135-1.468,0.8-1.773,1.947c1.076-0.274,3.01-0.227,2.814,3.708
		c-0.169,3.542-2.75,4.422-4.292,4.573c0.05,0.359,0.109,0.722,0.174,1.089C188.388,137.734,189.613,137.374,190.761,136.536"/>
	<path fill="#E9E74A" d="M195.417,136.929c0.245-1.354,0.019-2.564-0.393-3.33c-0.434,1.291-1.205,2.523-2.244,3.525
		c0.101,1.443-0.544,4.064-4.016,4.825c0.119,0.227,0.225,0.452,0.35,0.671C194.06,141.604,195.173,138.328,195.417,136.929"/>
	<path fill="#E9E74A" d="M196.029,142.913c-0.062-0.778-0.371-1.4-0.722-1.782c-0.172,0.197-0.341,0.387-0.527,0.569
		c-0.311,0.301-0.638,0.575-0.996,0.823c0,0.874-0.444,2.607-1.575,3.728c0.508,0.387,1.064,0.728,1.651,1.033
		C195.374,145.925,196.138,144.383,196.029,142.913"/>
	<path fill="#E9E74A" d="M168.792,125.036c1.693-1.314,3.553-1.949,5.396-1.869c-0.062-0.824-0.112-1.607-0.136-2.343
		c-9.183,3.634-25.852,6.838-38.445,8.914c-14.914,2.465-28.479,4.083-32.894,4.513c-0.284,0.96-0.53,1.965-0.721,2.956
		c6.858,0.085,31.593-0.576,65.441-10.926C167.849,125.831,168.3,125.413,168.792,125.036"/>
	<path fill="#3D6566" d="M225.341,96.042c-0.822,0.158-1.605,0.301-2.359,0.442c-0.291,3.444-1.891,13.609-8.537,20.429
		c0.502,0.258,0.953,0.562,1.342,0.907C221.359,112.249,225.702,102.341,225.341,96.042"/>
	<path fill="#3D6566" d="M211.871,144.507c0.189-1.449,0.401-3.068,0.201-4.221c-0.846,0.146-1.686,0.166-2.477,0.095
		c-0.055,1.991-0.186,6.258-0.592,7.977c0.91-0.162,1.788-0.342,2.617-0.552C211.555,146.863,211.716,145.71,211.871,144.507"/>
	<path fill="#C52126" d="M50.854,252.631c-3.958,1.518-13.933,7.812-11.333,2.77c13.934-26.957,18.916-67.23,19.779-73.221
		c0.325-2.244,1.507-3.822,2.569-4.711c-4.739-1.172-8.556-2.84-10.69-4.793c-0.148-0.141-0.244-0.33-0.275-0.529
		c-0.059-0.447,0-1.213,0.137-2.211c-1.814,1.033-2.385,4.189-2.713,5.996l-0.009,0.047c-0.052,0.289-5.452,29.666-13.103,44.42
		c-14.276,27.557-20.201,32.336-23.9,36.195c0.738,0.4,2.877,1.156,6.394,0.857c9.204-0.783,14.454-5.732,15.13-5.457
		c0.673,0.275-0.786,8.596,1.186,13.381c0.674-0.146,3.025-1.109,8.337-4.041c3.892-2.162,8.827-5.332,9.364-5.174
		c0.537,0.168,1.391,5.146,2.371,8.279c1.264,3.996,2.197,5.545,2.588,5.879c0.31-0.119,1.033-0.543,2.271-1.512
		C56.555,264.809,54.144,251.367,50.854,252.631"/>
	<path fill="#F16475" d="M110.549,189.496c1.565-0.123,3.125-0.127,4.653-0.018c-1.249-3.973-3.202-8.592-4.799-12.365
		c-0.743-1.775-1.406-3.334-1.922-4.648c-1.242,0.219-2.531,0.418-3.82,0.621l5.878,16.41H110.549z"/>
	<path fill="#F16475" d="M125.949,269.729c0.534-0.287,1.904-1.543,3.142-7.178c0.734-3.307,1.497-8.967,1.821-9.086
		c0.692-0.254,3.973,3.645,10.24,6.621c2.922,1.383,4.783,1.764,5.596,1.773c-0.39-0.877-1.381-2.635-2.498-4.619
		c-8.838-15.635-16.669-32.748-22.096-48.158c-1.962-0.289-4.373-0.314-6.938-0.289c2.471,6.186,14.818,36.367,24.15,47.266
		c0,0-5.203-1.814-9.268-5.562c-2.268-2.098-3.609,14.791-5.976,18.836C125.282,269.945,125.786,269.82,125.949,269.729"/>
	<path fill="#191919" d="M190.021,251.465c-2.01-11.211,9.479-16.842,11.541-23.951c1.981-6.832-0.27-17.572-10.371-24.736
		c-3.586-2.551-2.368,1.332-2.368,1.332s-9.621-1.049-13.99-15.17c-3.753-12.143-2.271-26.947-1.79-30.793
		c-1.072-0.306-2.096-0.676-3.012-1.094c-0.412,2.718-0.961,9.875-0.522,17.995c0.187,3.453,0.578,7.436,1.342,11.305
		c1.815,9.191,5.443,13.738,4.929,14.141c0,0-1.137,13.441-10.004,17.6c-8.332,3.9-17.834,3.326-28.045-7.611
		c-10.226-10.939-24.335-16.564-35.9-12.006c-2.932,1.16-4.528,2.242-5.29,3.221c1.021,5.574,9.14,5.461,17.003,5.359
		c4.324-0.055,8.426-0.115,11.212,0.826c4.23,1.428,8.003,4.564,12.004,7.881c6.248,5.186,12.696,10.545,21.396,9.588
		c11.211-1.236,20.104-8.746,22.699-19.172c-2.067-1.449-3.008-2.854-2.525-3.236c0.274-0.215,6.928,5.084,14.048,5.176
		c-0.831-1.227-1.396-1.939-1.247-2.135c0.125-0.141,4.394,1.779,6.578,9.096c0.775,2.598,1.821,7.566,0.103,11.689
		c-1.626,3.883-4.298,7.211-6.671,10.145c-2.191,2.727-4.084,5.08-4.354,6.949c-0.393,2.619-0.096,5.625,0.84,8.48
		c1.389,4.297,4.586,8.156,7.169,7.43c0.136-0.035,0.268-0.082,0.394-0.125C193.371,259.326,191.119,257.588,190.021,251.465"/>
	<path fill="#3D6566" d="M198.573,244.654c0.265-0.348,0.851-0.893,2.04-1.992c4.347-4.031,14.545-13.473,14.463-21.299
		c-0.054-5.414-1.553-10.768-3.653-15.471c-2.171-4.842-6.106-10.453-6.904-12.156c1.157,3.764,10.216,21.219,8.489,28.748
		c-1.649,7.195-10.223,15.203-14.863,19.102c-1.791,1.502-2.736,2.877-1.738,6.271c1.375,4.625,0.909,8.621,0.422,10.77
		C200.256,255.229,197.054,246.688,198.573,244.654"/>
	<path fill="#3D6566" d="M222.896,186.455c1.623-7.547-2.479-15.293-5.762-21.514c-0.842-1.583-1.637-3.087-2.283-4.483
		c-0.789,0.36-1.593,0.711-2.431,1.051c3.581,6.132,16.368,26.853-2.703,37.742c0.248,0.381,0.507,0.768,0.75,1.164
		C212.435,199.689,220.829,196.064,222.896,186.455"/>
	<path fill="#191919" d="M213.07,241.424c0.701-3.283,10.676-8.877,12.91-18.244c1.857-7.775-9.867-18.152-13.994-21.486
		c-0.225,0.094-0.435,0.18-0.604,0.254c0.534,0.947,1.049,1.934,1.501,2.934c0.586,1.295,1.133,2.643,1.615,4.016
		c2.469,2.088,4.834,4.645,6.527,7.027c2.229,3.156,3.11,5.752,2.618,7.717c-0.625,2.523-4.097,6.426-7.443,10.199
		c-2.369,2.666-4.818,5.424-5.215,6.641c-1.604,4.947-0.728,11.178,2.03,14.473c0.365,0.432,0.742,0.805,1.137,1.109
		C211.916,251.553,212.513,243.973,213.07,241.424"/>
	<path fill="#3D6566" d="M222.261,243.783c0.529-0.842,1.578-1.799,2.905-3.016c3.999-3.668,10.688-9.789,10.841-19.84
		c0.069-4.721-2.043-10.439-6.258-16.99c-2.699-4.174-5.701-7.812-7.952-10.336c-0.653,0.986-1.37,1.873-2.101,2.664
		c2.439,2.715,12.521,14.262,13.666,21.572c2.363,14.979-11.985,21.311-13.012,26.121c-0.334,1.592,0.859,8.336,0.104,12.248
		C223.524,253.396,221.163,245.506,222.261,243.783"/>
	<path fill="#191919" d="M218.302,84.716c6.38,1.228,8.686-2.152,9.531-6.316c-0.487,1.146-1.252,2.239-2.388,3.15
		c-1.299,1.031-4.083,1.507-6.618,1.118c-2.365-0.377-4.242-1.433-5.276-2.982C213.776,81.56,214.769,84.037,218.302,84.716"/>
	<path fill="#C167A9" d="M214.755,78.879c0.802,1.213,2.33,2.051,4.293,2.354c2.348,0.36,4.636-0.127,5.49-0.819
		c0.785-0.619,1.355-1.347,1.752-2.125c-1.771,1.237-4.885,1.265-7.09,0.587c-3.039-0.942-3.782-2.502-2.963-4.741
		c-0.15,0.187-0.297,0.372-0.426,0.568C214.609,76.411,214.197,78.054,214.755,78.879"/>
	<path fill="#E1ACCF" d="M219.707,72.402c0,0,5.266-3.535,6.484,2.316C226.191,74.718,222.48,71.705,219.707,72.402"/>
	<path fill="#3D6566" d="M229.633,52.854c0.864-2.781,3.834-7.241,5.163-8.188c0.953-0.667,2.07-1.013,3.157-1.347
		c2.354-0.735,4.584-1.423,5.694-5.31c0.453-1.56,0.052-3.032-1.127-4.158c-1.619-1.561-4.281-2.083-6.615-1.304
		c3.162,0.166,4.037,3.927,3.101,5.586c-1.403,2.467-4.04,3.171-5.866,3.328c-1.578,0.143-4.29,8.046-4.842,11.008
		c0.072,0.017,0.146,0.031,0.218,0.048C228.898,52.61,229.275,52.721,229.633,52.854"/>
	<path fill="#191919" d="M170.392,101.25c-1.645,1.392-2.502,2.429-2.617,2.344c-0.083-0.068,0.411-1.081,1.586-2.451
		c-2.125-0.267-4.025-0.765-5.371-1.667c0,0,3.274-3.231,3.242-6.718c0,0-9.713-1.811-13.542-5.134c0,0,8.626-1.627,10.188-12.244
		c1.533-10.541-1.372-23.8-24.787-33.044c-0.199-0.033-0.395-0.061-0.58-0.092c7.116,3.854,13.158,8.509,17.27,13.366
		c2.86,3.38,4.775,6.827,5.678,10.242c1.139,4.335,0.752,7.598-0.767,11.239c-1.684,4.062-4.672,6.61-8.636,7.372
		c-3.031,0.585-6.047,0.028-8.16-0.592c1.395,4.23,5.074,6.661,8.001,8.15c6.281,3.206,11.855,2.07,12.192,2.951
		c0.406,1.058-3.178,4.487-7.666,5.314c8.002,8.523,23.291,3.717,23.904,4.13c0.619,0.411,0.52,4.007,0.283,5.744
		c-0.125,0.941-0.24,2.986-0.226,3.146c0.763,0.501,1.562,0.937,2.38,1.313c0.676-2.776,2.037-9.465,0.328-13.372
		C180.482,101.135,175.074,101.672,170.392,101.25"/>
	<path fill="#3D6566" d="M209.865,101.794c0,0-3.471,9.107-5.543,13.417c1.256-0.474,2.325-1.025,3.123-1.636
		c0.186-1.036,0.836-2.602,1.568-4.376c0.709-1.714,1.523-3.661,1.733-4.807c0.069-0.396,0.394-0.683,0.798-0.715
		c3.65-0.284,6.171-1.232,7.494-2.832c0.775-0.927,1.2-1.889,1.2-3.892c-0.95,0.165-1.894,0.32-2.834,0.471
		C217.273,99.189,215.992,101.977,209.865,101.794"/>
	<path fill="#3D6566" d="M210.759,50.801c0,0-3.106,2.951-1.867,4.558c1.05,1.362,3.824-2.438,7.973-3.178
		c2.622-0.469,3.749,0.516,4.188,1.196c1.468-0.639,2.819-0.962,4.015-1.074c0.046-1.479-0.448-2.572-1.488-3.25
		c-2.066-1.358-5.631-0.843-7.275,0.124c-0.166,0.104-0.367,0.146-0.562,0.119c-4.527-0.635-9.662-4.376-15.102-8.336
		c-5.271-3.84-11.139-8.104-17.234-10.128c1.206,1.151,2.266,2.321,3.154,3.48c4.564,3.027,11.237,7.526,14.63,10.908
		C206.96,50.968,210.759,50.801,210.759,50.801"/>
	<path fill="#3D6566" d="M257.212,80.512c0.125-2.614-4.951-3.887-10.311-5.239c-5.522-1.386-11.742-2.956-14.549-6.588
		c-0.545,0.585-1.158,1.142-1.839,1.692c10.12,10.648,21.38,7.264,22.915,10.677c0.934,2.072-5.119,6.1-11.281,9.087
		c6.04-1.905,10.431-3.969,12.885-6.076C256.424,82.861,257.163,81.669,257.212,80.512"/>
	<path fill="#3D6566" d="M174.765,48.676c-5.4-0.912-11.268-2.664-14.779-3.71l-2.166-0.63c-7.143-2.025-15.934-3.715-21.26-3.109
		c0.532,0.268,1.058,0.54,1.573,0.817c-0.028-0.036-0.064-0.072-0.089-0.11c0.005,0,0.015,0,0.024,0.005
		c0.341,0.129,0.69,0.263,1.022,0.395c9.131,1.4,23.18,5.034,30.945,8.062c8.803,3.44,16.628,0.521,18.846-4.438
		c-0.281,0.461-0.618,0.908-1.012,1.327C185.863,49.378,181.574,49.838,174.765,48.676"/>
	<path fill="#F16475" d="M128.833,319.611c1.33-1.652,1.235-4.707-0.305-8.396c-0.566-1.355-1.306-2.74-2.17-4.061
		c-1.791-0.25-3.646,0.113-5.316,0.857c2.494,3.189,4.652,8.164,4.867,12.918C127.371,320.609,128.38,320.172,128.833,319.611"/>
	<path fill="#E9E74A" d="M122.72,302.668c-0.537-0.539-1.074-1.014-1.623-1.455c-1.725,0.191-3.668,0.688-5.582,1.527
		c1.337,1.061,3.127,2.787,4.45,4.178c1.657-0.816,3.489-1.303,5.333-1.291C124.501,304.559,123.632,303.566,122.72,302.668"/>
	<path fill="#F16475" d="M119.416,300.012c-1.535-0.969-3.046-1.545-4.445-1.688c-1.311-0.129-3.005,0.219-4.808,1.062
		c0.967,0.561,2.581,1.551,3.925,2.438C115.877,300.932,117.702,300.342,119.416,300.012"/>
	<path fill="#C52126" d="M85.319,307.498c-1.613,1.988-2.216,4.525-1.724,5.193c0.465,0.629,1.213,1.25,2.206,1.857
		c0.134-1.48,0.749-3.939,2.118-5.688C86.875,308.416,85.982,307.943,85.319,307.498"/>
	<path fill="#EF9C20" d="M54.233,276.932c2.279,0.297,5.727-4.842,7.634-8.217c-3.922,3.316-4.834,3.375-5.174,3.385
		c-0.987,0.059-2.179-0.705-4.092-6.605c-0.835-2.553-1.518-5.248-1.861-7.037c-1.552,0.984-4.152,2.521-6.716,3.959
		c0.141,1.076,0.276,3.389,0.276,6.527c0,3.412-0.159,7.789-0.642,12.605c-0.831,8.143-2.817,19.281-7.573,26.754
		c1.441,1.301,3.328,2.232,5.248,2.875C50.974,291.557,50.606,276.465,54.233,276.932"/>
	<path fill="#E9E74A" d="M117.219,265.957c-1.046-1.053-2.024-2.117-2.869-3.059c-0.263,7.678-1.188,26.299-3.438,34.297
		c1.081-0.369,2.139-0.594,3.101-0.639C115.98,289.58,117.134,271.227,117.219,265.957"/>
	<path fill="#E9E74A" d="M66.384,300.342c2.385-5.932,3.719-13.768,4.427-19.398c0.8-6.373,1.169-12.859,1.149-16.412
		c-0.635-1.498-1.186-2.9-1.577-3.953c-0.602,0.678-1.372,1.469-2.208,2.307c-0.211,5.574-1.282,26.117-5.131,37.451
		C64.221,300.145,65.338,300.145,66.384,300.342"/>
	<path fill="#EF9C20" d="M93.527,272.986c0,0,3.92,6.057,6.706,5.359c1.378-0.346,2.806-2.549,3.679-4.184
		c-0.596,0.496-1.188,0.818-1.766,0.922c-1.857,0.342-4.252-1.664-7.322-6.135c-1.578-2.295-3.066-4.895-3.938-6.604
		c-0.182,0.25-0.377,0.52-0.592,0.811c0.382,1.729,0.656,5.428,0.656,10.166c0,2.514-0.083,5.328-0.256,8.295
		c-0.43,7.045-1.559,16.887-4.452,24.387c0.554,0.377,1.345,0.797,2.304,1.213C90.526,300.549,95.014,283.963,93.527,272.986"/>
	<path fill="#3D6566" d="M195.964,59.974c-5.396,1.572-6.889,4.013-7.313,2.22c-0.38-1.6,2.55-4.87,6.116-6.007
		c6.358-2.029,9.574,1.297,9.338,2.578C203.73,60.828,201.669,58.297,195.964,59.974"/>
	<path fill="#EF9C20" d="M62.76,113.559c-0.437,1.451-1.12,1.779-2.667,0.603c-1.557-1.181-3.55-3.81-6.556-4.143
		c-2.907-0.32-6.26,1.265-7.138,3.746c-0.234,1.901,0.169,3.798,1.17,5.474c2.167,3.644,5.449,5.529,9.143,5.146
		c5.057-0.529,4.976-3.78,5.857-3.474c0.113,0.037,0.314,2.147-1.541,3.7c0.203,2.521,0.399,11.526-0.931,16.836
		c1.304,0.63,2.44,1.643,3.142,3.056c0.048,0.09,0.067,0.195,0.067,0.291c0.869-0.4,1.798-0.671,2.745-0.765
		c0.344-0.037,0.678-0.027,1.003-0.011C68.23,112.573,63.292,111.79,62.76,113.559 M58.026,119.334
		c-0.425,0.071-0.816-2.664-2.655-4.357c-0.437,0.055-1.031,0.441-1.43,1.137c-0.94,1.651,0.389,5.035,0.146,5.174
		c-0.621,0.372-2.88-3.29-1.396-5.891c0.31-0.552,0.739-1.007,1.219-1.337c-1.952-0.747-4.105,0.029-4.277-0.441
		c-0.201-0.556,2.979-2.061,5.617-0.517C58.356,114.917,58.766,119.214,58.026,119.334"/>
	<path fill="#EF9C20" d="M27.509,18.523c-1.639,1.853-1.129,9.168-0.758,14.516c0.408,5.921,0.592,9.334-0.414,10.65
		c-0.916,1.196-3.844,2.249-8.938,4.013c-5.377,1.86-12.739,4.402-13.744,6.819c-0.273,0.635-0.201,2.057,1.666,5.237
		c1.432,2.445,3.461,5.152,5.414,7.769c3.475,4.648,5.434,7.362,5.2,8.97c-0.229,1.633-2.607,4.057-6.468,7.871
		c-3.256,3.227-7.709,7.64-7.709,9.517c0,0.468,0.433,1.609,3.352,3.999c2.113,1.733,4.936,3.634,7.413,5.3
		c3.751,2.525,6.095,4.133,6.899,5.303c1.164,1.704,0.256,4.973-0.805,8.754c-0.863,3.119-1.955,6.989-0.945,8.049
		c0.301,0.324,1.264,0.886,4.314,0.995c2.199,0.079,4.807-0.083,7.105-0.227c3.512-0.219,5.383-0.315,6.271,0.096
		c1.099,0.506,2.02,2.489,3.676,6.255c0.826,1.877,1.679,3.814,2.546,5.353c1.184,2.115,1.853,2.471,2.079,2.531
		c0.396,0.1,2.123,0.209,7.735-2.541c3.187-1.555,6.508-3.507,7.938-4.526c0.134-3.059,0.081-5.979,0-7.646
		c-0.678,0.26-1.485,0.449-2.442,0.55c-4.278,0.449-8.332-1.788-10.837-5.988c-1.208-2.019-1.692-4.301-1.398-6.601
		c0.296-2.317,1.74-5.149,4.183-6.785c-6.31,0.041-10.584,6.885-12.011,5.217c-1.679-1.952,2.833-10.69,1.775-12.8
		c-1.043-2.101-18.514-0.812-20.429-4.8s11.804-16.869,11.784-19.293c-0.01-2.424-16.096-16.59-16.127-18.815
		c-0.028-2.225,16.218-8.651,18.149-10.115c1.583-1.201-2.715-21.351-2.62-28.299C28.222,17.964,27.72,18.27,27.509,18.523"/>
	<path fill="#E9E74A" d="M105.24,124.649c-2.576,1.929-6.176,1.496-6.176,1.496s-3.111,8.894-3.57,17.049
		c0.297,0.096,0.588,0.215,0.867,0.354c0.446-0.723,1.435-2.032,3.087-2.903c0.119-0.064,0.245-0.129,0.377-0.191
		c0.079-3.75,1.876-9.258,2.806-11.296c0.139-0.315,0.455-0.521,0.805-0.521c3.101,0.038,5.23-0.866,6.303-2.688
		c1.117-1.877,0.838-4.288,0.357-5.592c-0.983,0.124-2.134,0.256-3.409,0.375C106.806,121.798,106.724,123.545,105.24,124.649"/>
	<path fill="#E9E74A" d="M139.427,106.232c0.291-0.317,0.563-0.643,0.812-0.969c1.405-1.874,1.99-3.748,1.716-5.574
		c-0.301-1.98-2.646-2.978-5.364-4.128c-2.209-0.941-4.68-1.989-6.489-3.805c-0.73,1.169-1.726,2.154-2.865,2.974
		c1.364,1.081,4.427,3.274,7.406,4.156C137.927,99.857,141.375,102.178,139.427,106.232"/>
	<path fill="#E9E74A" d="M117.31,85.887c6.437-2.987,8.18-0.79,9.201,0.555c0.889,1.177,2.211,5.132-3.695,8.655
		c2.641-1.185,5.295-2.841,6.268-5.188c1.19-2.879-0.316-5.47-0.803-6.202c-1.232-1.823-3.445-2.39-6.778-1.721
		c-2.9,0.578-5.62,1.776-7.96,2.917c-2.039,0.989-4.216,1.819-6.006,1.776c-0.101,0.562-0.232,1.141-0.383,1.71
		C108.499,88.722,111.638,88.523,117.31,85.887"/>
	<path fill="#E9E74A" d="M142.822,39.552c-0.062-0.196-0.129-0.377-0.209-0.547c-0.299-0.607-1.338-1.462-4.637-2.084
		c-2.555-0.483-5.66-0.693-8.662-0.896c-4.839-0.324-7.869-0.569-9.213-1.516c-1.654-1.153-2.082-5.181-2.643-11.659
		c-0.354-4.007-0.661-11.496-2.607-12.243c-2.086-0.803-10.099,2.956-13.985,4.702c-5.532,2.479-8.738,3.873-10.28,3.653
		c-1.659-0.238-4.293-2.997-8.812-7.864c-3.137-3.357-8.82-9.406-10.506-9.339c-0.225,0.009-0.841,0.21-2.163,1.632
		c3.748,1.546,15.759,19.459,21.267,19.064c6.093-0.441,19.721-8.188,21.762-7.115c2.031,1.067,0.762,20.258,3.287,22.879
		c1.932,2.006,8.418,1.643,11.566,2.194c1.822,0.114,4.121,0.096,6.048,0.456C133.136,40.048,137.044,39.046,142.822,39.552"/>
	<path fill="#E9E74A" d="M131.736,63.306c4.968-5.605,8.721-11.698,10.408-16.903c-1.688-1.069-3.229-1.947-4.553-2.674
		c-0.256,3.462-3.34,11.747-7.229,17.543C130.867,61.917,131.333,62.595,131.736,63.306"/>
	<path fill="#B5D9D9" d="M111.743,57.111c-5.413,1.492-9.76,5.088-12.019,9.898c0.459,0.309,0.898,0.633,1.318,0.976
		C103.425,63.331,106.957,60.042,111.743,57.111"/>
	<path fill="#B5D9D9" d="M82.896,101.502c-3.65-0.771-8.786-2.973-12.408-9.072c-2.426-4.072-2.936-8.942-1.459-13.715
		c0.824-2.665,2.219-5.119,4.141-7.283c1.701-1.919,3.746-3.527,6.095-4.795c-0.005,0.007-0.023,0.01-0.045,0.018
		c-2.953,1.356-5.47,3.217-7.509,5.509c-1.91,2.163-3.318,4.617-4.146,7.281c-1.473,4.771-0.953,9.645,1.465,13.712
		c3.63,6.102,8.751,8.3,12.41,9.076c4.42,0.934,9.303,0.356,13.41-1.583c0.442-0.2,0.859-0.416,1.264-0.63
		C92.044,101.877,87.244,102.419,82.896,101.502"/>
	<path fill="#B5D9D9" d="M51.742,147.446c0-2.854,2.383-5.163,5.324-5.163c2.24,0,4.233,1.372,4.99,3.385
		c-1.595,1.241-2.617,3.168-2.617,5.341c0,0.351,0.024,0.688,0.072,1.021c-0.757,0.377-1.596,0.578-2.445,0.578
		C54.125,152.608,51.742,150.292,51.742,147.446"/>
	<path fill="#B5D9D9" d="M75.501,147.53c-0.773,0.692-1.33,1.665-1.6,2.822c-0.314,1.412-0.133,2.886,0.476,3.953
		c0.938-0.742,2.156-1.515,3.712-2.239C76.753,150.962,75.841,148.876,75.501,147.53"/>
	<path fill="#B5D9D9" d="M64.171,150.43c-0.287-2.58,1.752-4.014,3.433-4.549c-0.441-0.126-0.914-0.19-1.406-0.19
		c-2.934,0-5.318,2.388-5.318,5.31c0,2.941,2.385,5.329,5.318,5.329c1.86,0,3.497-0.96,4.455-2.411
		C68.56,155.27,64.677,155.09,64.171,150.43"/>
	<path fill="#B5D9D9" d="M89.913,145.162c-0.611,0.4-1.082,0.883-1.438,1.327c-0.802,0.997-1.251,2.076-1.451,2.977
		c0.683-0.107,1.394-0.202,2.126-0.281C88.561,147.979,89.343,146.14,89.913,145.162"/>
	<path fill="#EF9C20" d="M71.63,158.002c-0.178-0.15,0.188-1.291,1.646-2.735c-0.349-0.534-0.611-1.151-0.773-1.812
		c-0.984,2.521-3.44,4.319-6.306,4.319c-2.87,0-5.325-1.801-6.303-4.329c-0.895,0.401-1.853,0.612-2.829,0.612
		c-0.04,0-0.076,0-0.105-0.005c-1.675,4.298-4.309,15.051-4.328,17.561c2.032,1.715,5.541,3.188,9.898,4.221
		c0.767-7.527,3.503-15.565,3.503-15.565C68.789,160.193,70.751,158.9,71.63,158.002"/>
	<path fill="#E9E74A" d="M167.661,136.423c2.313-1.062,1.213-5.314,3.567-8.107c0.605-1.347,1.413-2.478,2.416-3.396
		c-1.285,0.06-2.576,0.565-3.772,1.494c-2.493,1.939-4.021,5.31-3.801,8.39c0.026,0.377-0.179,0.728-0.53,0.871
		c-10.654,4.529-24.175,8.207-40.199,10.918c-13.159,2.229-24.77,3.285-31.709,3.924c-1.777,0.158-3.186,0.285-4.212,0.4
		c-2.836,0.305-5.235,0.825-7.257,1.461c-2.949,0.92-5.279,2.118-6.996,3.173c3.605-0.75,11.508-2.226,24.652-3.743
		C120.299,149.445,142.339,148.049,167.661,136.423"/>
	<path fill="#EF9C20" d="M85.324,174.801c0.821,0.656,1.122,1.254,0.967,2.059c3.646-0.535,6.962-1.412,9.789-2.596
		C90.908,174.875,86.634,175.176,85.324,174.801"/>
	<path fill="#EF9C20" d="M127.548,165.104c-21.142,4.916-42.836,7.229-42.649,9.385c-0.028-0.439,13.216-2.059,23.375-3.76
		c6.422-1.078,13.19-2.393,19.703-3.852c18.103-4.058,32.067-8.648,39.343-12.925c0.31-0.179,0.707-0.15,0.985,0.076
		c1.874,1.497,5.701,2.913,9.177,3.121c-0.579-0.566-1.121-1.159-1.618-1.774c-0.291-0.351-0.57-0.712-0.821-1.074
		c-1.917-0.134-4.282-0.358-7.062-1.901C165.054,153.575,146.551,160.679,127.548,165.104"/>
	<path fill="#C52126" d="M34.892,309.59c-1.418,1.301-2.13,3.557-2.13,4.779c0,0.297,0.038,0.535,0.124,0.68
		c0.633,1.078,2.115,2.24,4.3,3.412c0.621-2.158,1.908-4.602,2.776-5.906C38.123,311.855,36.33,310.891,34.892,309.59"/>
	<path fill="#F16475" d="M79.522,324.68c0.53-0.584,0.786-3.389-0.37-7.561c-0.508-1.777-1.188-3.537-2.015-5.168
		c-1.621-0.318-3.082-0.287-4.381-0.035c2.44,3.854,4.12,9.365,2.872,14.166C77.742,325.785,78.99,325.258,79.522,324.68"/>
	<path fill="#F16475" d="M70.355,303.918c-1.168-0.764-2.393-1.326-3.693-1.713c-0.934-0.271-1.979-0.332-3.094-0.176
		c0.771,0.59,2.117,1.752,3.254,2.775C68.065,304.367,69.261,304.072,70.355,303.918"/>
	<path fill="#E9E74A" d="M76.261,310.354c-0.454-0.766-0.945-1.502-1.453-2.184c-0.854-1.123-1.761-2.1-2.716-2.936
		c-1.053,0.006-2.504,0.217-4.134,0.73c1.229,1.229,2.885,3.082,4.084,4.629C73.31,310.289,74.716,310.184,76.261,310.354"/>
	<path fill="#3D6566" d="M239.58,150.435c-0.315-2.203-1.91-4.566-4.26-6.314c-3.571-2.641-9.337-0.865-12.352,0.974
		c-1.84,1.127-11.658,6.683-24.09,5.391c-6.154-0.63-10.299-3.758-12.333-9.282c-1.834-4.98-1.251-12.967-0.387-12.916
		c0.231,0.01,0.377,0.377,0.458,0.994c0.046-0.201,0.091-0.406,0.146-0.617c0.064-0.305,0.132-0.64,0.228-0.973
		c-1.018-1.194-2.041-2.016-3.039-2.569c-1.361,1.27-4.723,5.56-1.102,14.742c4.434,11.247,13.742,15.931,28.8,11.606
		c13.323-3.826,13.511-6.23,17.796-6.811c2.93-0.391,9.733,4.612,9.311,9.307C239.489,152.96,239.771,151.777,239.58,150.435"/>
	<path fill="#191919" d="M196.912,161.436c-14.986-0.246-20.231-11.412-22.525-19.522c-2.645-9.372,0.211-15.698,5.462-17.796
		c-1.64,0.077-2.922,0.669-3.525,1.009c-2.526,1.422-4.068,4.072-4.587,7.887c-0.557,4.121,0.223,8.49,0.967,11.424
		c0.836,3.25,1.953,6.69,4.518,9.824c2.922,3.579,7.281,6.243,13.334,8.146c4.882,1.532,10.879,1.113,17.836-1.259
		c5.794-1.979,10.826-4.788,13.83-6.477c1.029-0.574,1.773-0.995,2.256-1.218c0.254-0.114,0.545-0.1,0.801,0.041
		c1.136,0.651,4.051,1.492,6.932,1.789c1.338,0.141,2.529,0.146,3.518,0.024c-3.729-0.4-9.35-2.215-10.627-2.549
		C223.55,152.345,209.816,161.637,196.912,161.436"/>
	<path fill="#B5D9D9" d="M246.79,90.389c-1.366,0.514-2.804,1.003-4.259,1.462c1.179,1.556,1.924,3.936,2.275,5.624
		c0.184-0.229-0.094-3.951-1.027-5.186C244.947,91.919,246.794,90.583,246.79,90.389"/>
	<path fill="#B5D9D9" d="M204.747,99.083c-1.905,0.201-3.702,0.36-5.372,0.492c0.105,2.072,0.829,5.448,1.911,7.42
		c0.104-0.143-1.022-5.092-1.104-6.837C201.582,100.051,204.711,99.308,204.747,99.083"/>
	<path fill="#BDD631" d="M214.98,63.97c-0.122-2.146,0.582-4.273,1.977-6.107c-1.958,2.031-2.999,4.567-2.854,7.127
		c0.141,2.504,1.406,4.593,3.493,5.812c0.243-0.186,0.501-0.362,0.764-0.529C216.498,68.926,215.103,66.281,214.98,63.97"/>
	<path fill="#BDD631" d="M226.978,70.101c0.166,0.2,0.33,0.42,0.479,0.657c2.833-1.751,4.771-3.713,5.809-5.853
		C231.729,66.783,229.311,68.621,226.978,70.101"/>
	<path fill="#BDD631" d="M202.421,80.584c-3.978,2.234-7.559,3.275-10.617,3.084c-2.535-0.148-4.666-1.144-6.312-2.939
		c-0.762-0.832-1.044-2.6-0.722-4.507c0.325-1.932,1.182-3.779,2.443-5.4c-1.824,1.867-3.051,4.154-3.46,6.562
		c-0.325,1.906-0.036,3.676,0.714,4.507c1.652,1.8,3.777,2.794,6.322,2.946c3.061,0.19,6.627-0.851,10.609-3.09
		c1.573-0.879,3.016-2.124,4.142-3.566C204.613,79.125,203.553,79.949,202.421,80.584"/>
</g>
</svg>
