<?xml version="1.0" encoding="iso-8859-1"?>
<!-- Generator: Adobe Illustrator 19.0.0, SVG Export Plug-In . SVG Version: 6.00 Build 0)  -->
<svg xmlns="http://www.w3.org/2000/svg" xmlns:xlink="http://www.w3.org/1999/xlink" version="1.1" id="Layer_1" x="0px" y="0px" viewBox="0 0 512 512" style="enable-background:new 0 0 512 512;" xml:space="preserve" width="512px" height="512px">
<g>
	<g>
		<path d="M448,149.333h-21.333c-5.888,0-10.667,4.779-10.667,10.667v32c0,17.643-14.357,32-32,32H128c-17.643,0-32-14.357-32-32    v-32c0-5.888-4.779-10.667-10.667-10.667H64c-29.397,0-53.333,23.936-53.333,53.333v128C10.667,360.064,34.603,384,64,384h384    c29.397,0,53.333-23.936,53.333-53.333v-128C501.333,173.269,477.397,149.333,448,149.333z M480,330.667c0,17.643-14.357,32-32,32    H64c-17.643,0-32-14.357-32-32v-128c0-17.643,14.357-32,32-32h10.667V192c0,29.397,23.936,53.333,53.333,53.333h256    c29.397,0,53.333-23.936,53.333-53.333v-21.333H448c17.643,0,32,14.357,32,32V330.667z" fill="#006DF0"/>
	</g>
</g>
<g>
	<g>
		<path d="M426.667,0H149.333c-2.837,0-5.547,1.131-7.552,3.115l-64,64c-1.984,2.005-3.115,4.715-3.115,7.552V160    c0,5.888,4.779,10.667,10.667,10.667S96,165.888,96,160V79.083l57.749-57.749H416V160c0,5.888,4.779,10.667,10.667,10.667    s10.667-4.779,10.667-10.667V10.667C437.333,4.779,432.555,0,426.667,0z" fill="#006DF0"/>
	</g>
</g>
<g>
	<g>
		<path d="M149.333,362.667c-5.888,0-10.667,4.779-10.667,10.667v117.333h-21.333V373.333c0-5.888-4.779-10.667-10.667-10.667    S96,367.445,96,373.333v128c0,5.888,4.779,10.667,10.667,10.667h42.667c5.888,0,10.667-4.779,10.667-10.667v-128    C160,367.445,155.221,362.667,149.333,362.667z" fill="#006DF0"/>
	</g>
</g>
<g>
	<g>
		<path d="M234.667,362.667c-5.888,0-10.667,4.779-10.667,10.667v117.333h-21.333V373.333c0-5.888-4.779-10.667-10.667-10.667    s-10.667,4.779-10.667,10.667v128c0,5.888,4.779,10.667,10.667,10.667h42.667c5.888,0,10.667-4.779,10.667-10.667v-128    C245.333,367.445,240.555,362.667,234.667,362.667z" fill="#006DF0"/>
	</g>
</g>
<g>
	<g>
		<path d="M320,362.667c-5.888,0-10.667,4.779-10.667,10.667v117.333H288V373.333c0-5.888-4.779-10.667-10.667-10.667    s-10.667,4.779-10.667,10.667v128c0,5.888,4.779,10.667,10.667,10.667H320c5.888,0,10.667-4.779,10.667-10.667v-128    C330.667,367.445,325.888,362.667,320,362.667z" fill="#006DF0"/>
	</g>
</g>
<g>
	<g>
		<path d="M405.333,362.667c-5.888,0-10.667,4.779-10.667,10.667v117.333h-21.333V373.333c0-5.888-4.779-10.667-10.667-10.667    S352,367.445,352,373.333v128c0,5.888,4.779,10.667,10.667,10.667h42.667c5.888,0,10.667-4.779,10.667-10.667v-128    C416,367.445,411.221,362.667,405.333,362.667z" fill="#006DF0"/>
	</g>
</g>
<g>
	<g>
		<path d="M85.333,277.333c-17.643,0-32,14.357-32,32c0,17.643,14.357,32,32,32c17.643,0,32-14.357,32-32    C117.333,291.691,102.976,277.333,85.333,277.333z M85.333,320c-5.888,0-10.667-4.779-10.667-10.667s4.779-10.667,10.667-10.667    S96,303.445,96,309.333S91.221,320,85.333,320z" fill="#006DF0"/>
	</g>
</g>
<g>
	<g>
		<path d="M170.667,277.333c-17.643,0-32,14.357-32,32c0,17.643,14.357,32,32,32c17.643,0,32-14.357,32-32    C202.667,291.691,188.309,277.333,170.667,277.333z M170.667,320c-5.888,0-10.667-4.779-10.667-10.667s4.779-10.667,10.667-10.667    s10.667,4.779,10.667,10.667S176.555,320,170.667,320z" fill="#006DF0"/>
	</g>
</g>
<g>
	<g>
		<path d="M149.333,0c-5.888,0-10.667,4.779-10.667,10.667V64H85.333c-5.888,0-10.667,4.779-10.667,10.667    s4.779,10.667,10.667,10.667h64c5.888,0,10.667-4.779,10.667-10.667v-64C160,4.779,155.221,0,149.333,0z" fill="#006DF0"/>
	</g>
</g>
<g>
</g>
<g>
</g>
<g>
</g>
<g>
</g>
<g>
</g>
<g>
</g>
<g>
</g>
<g>
</g>
<g>
</g>
<g>
</g>
<g>
</g>
<g>
</g>
<g>
</g>
<g>
</g>
<g>
</g>
</svg>
